<svg width="67" height="64" viewBox="0 0 67 64" fill="none" xmlns="http://www.w3.org/2000/svg">
<path d="M33.0667 0C14.8069 0 0 14.6887 0 32.8102C0 47.3061 9.47456 59.6048 22.613 63.9432C24.2656 64.2469 24.8723 63.2315 24.8723 62.3649C24.8723 61.583 24.8416 58.9979 24.8274 56.2563C15.6282 58.2411 13.687 52.3851 13.687 52.3851C12.1829 48.5933 10.0156 47.5843 10.0156 47.5843C7.01547 45.548 10.2417 45.5898 10.2417 45.5898C13.5622 45.8213 15.3106 48.9714 15.3106 48.9714C18.2598 53.9867 23.046 52.5367 24.933 51.6984C25.2304 49.5782 26.0869 48.1304 27.0324 47.311C19.6879 46.4819 11.9672 43.668 11.9672 31.096C11.9672 27.5144 13.2589 24.587 15.3741 22.2893C15.0309 21.4629 13.899 18.1259 15.695 13.6065C15.695 13.6065 18.4718 12.7252 24.7902 16.9701C27.4278 16.2432 30.2565 15.8786 33.0667 15.8656C35.8768 15.8786 38.7077 16.2432 41.3503 16.9701C47.6616 12.7252 50.4345 13.6065 50.4345 13.6065C52.2343 18.1259 51.1025 21.4629 50.7592 22.2893C52.8794 24.587 54.1618 27.5144 54.1618 31.096C54.1618 43.6985 46.4262 46.4726 39.0631 47.2849C40.2491 48.3032 41.3059 50.2998 41.3059 53.3609C41.3059 57.7509 41.2681 61.2841 41.2681 62.3649C41.2681 63.2385 41.8629 64.2611 43.539 63.9394C56.6708 59.5961 66.1333 47.3018 66.1333 32.8102C66.1333 14.6887 51.3286 0 33.0667 0Z" fill="white"/>
</svg>
