<svg width="64" height="64" viewBox="0 0 64 64" fill="none" xmlns="http://www.w3.org/2000/svg">
<path fill-rule="evenodd" clip-rule="evenodd" d="M31.5926 64C49.0168 64 63.1419 49.6731 63.1419 32C63.1419 14.3269 49.0168 0 31.5926 0C14.1684 0 0.0433099 14.3269 0.0433099 32C0.0433099 49.6731 14.1684 64 31.5926 64ZM13.8864 46.3057C14.7021 47.1305 15.6882 47.5429 16.8449 47.5429H46.2958C47.4525 47.5429 48.446 47.1305 49.2765 46.3057C50.107 45.481 50.5222 44.4838 50.5222 43.3141V20.7309C50.5222 19.5612 50.107 18.5565 49.2765 17.7168C48.446 16.877 47.4525 16.4571 46.2958 16.4571H16.8449C15.6882 16.4571 14.7021 16.877 13.8864 17.7168C13.0708 18.5565 12.663 19.5612 12.663 20.7309V43.3141C12.663 44.4838 13.0708 45.481 13.8864 46.3057ZM32.1487 33.732C31.9707 33.792 31.778 33.822 31.5703 33.822C31.3627 33.822 31.17 33.792 30.992 33.732C30.814 33.672 30.6213 33.582 30.4136 33.462L17.5122 24.6896C17.364 24.5697 17.2156 24.4048 17.0673 24.1948C16.919 23.9849 16.8449 23.745 16.8449 23.475C16.8449 22.8752 17.097 22.4403 17.6012 22.1704C18.1054 21.9005 18.6096 21.9305 19.1138 22.2604L31.5703 30.538L44.0714 22.2604C44.5757 21.9005 45.0724 21.8855 45.5618 22.2154C46.0512 22.5453 46.2958 22.9802 46.2958 23.52C46.2958 23.79 46.2291 24.0299 46.0956 24.2398C45.9622 24.4497 45.8213 24.5997 45.673 24.6896L32.727 33.462C32.5194 33.582 32.3266 33.672 32.1487 33.732Z" fill="white"/>
</svg>
