<svg width="597" height="233" viewBox="0 0 597 233" fill="none" xmlns="http://www.w3.org/2000/svg">
<path fill-rule="evenodd" clip-rule="evenodd" d="M274.5 229.056C426.102 229.056 549 189.175 549 139.979C549 126.243 539.419 113.233 522.307 101.614C533.73 110.516 540.037 120.282 540.037 130.526C540.037 172.091 436.201 205.787 308.112 205.787C180.024 205.787 76.1878 172.091 76.1878 130.526C76.1878 88.9599 180.024 55.2643 308.112 55.2643C351.388 55.2643 391.896 59.1106 426.566 65.8073C383.034 56.3902 330.742 50.9013 274.5 50.9013C122.898 50.9013 0 90.7826 0 139.979C0 189.175 122.898 229.056 274.5 229.056Z" fill="white"/>
<path d="M129.777 94.4123C128.201 94.4123 126.547 94.9638 124.814 96.0668C123.08 97.1698 121.741 98.5092 120.795 100.085L85.2225 161.776C84.2771 163.352 83.8043 165.125 83.8043 167.094C83.8043 168.434 84.0407 169.537 84.5134 170.403L100.232 196.994C100.626 197.782 101.217 198.176 102.004 198.176C103.265 198.176 104.486 197.152 105.668 195.103L124.459 162.485C125.404 160.909 126.744 159.57 128.477 158.467C130.211 157.364 131.865 156.812 133.441 156.812H173.15C174.726 156.812 176.38 156.261 178.114 155.158C179.847 154.055 181.186 152.715 182.132 151.14L211.559 100.085C212.19 99.0607 212.505 98.1153 212.505 97.2486C212.505 95.3577 211.402 94.4123 209.196 94.4123H129.777ZM145.614 145.467C144.747 147.043 143.447 148.382 141.714 149.485C139.98 150.588 138.326 151.14 136.75 151.14C134.544 151.14 133.441 150.194 133.441 148.303C133.441 147.437 133.717 146.491 134.268 145.467L157.195 105.758C158.141 104.182 159.48 102.843 161.214 101.74C162.947 100.637 164.602 100.085 166.177 100.085C168.383 100.085 169.486 101.03 169.486 102.921C169.486 103.788 169.171 104.733 168.541 105.758L145.614 145.467ZM228.738 94.4123C227.162 94.4123 225.468 94.9638 223.656 96.0668C221.923 97.1698 220.623 98.5092 219.756 100.085L213.138 111.43C212.587 112.455 212.311 113.4 212.311 114.267C212.311 116.158 213.414 117.103 215.62 117.103H243.984C245.481 117.103 247.096 116.552 248.829 115.449C250.641 114.346 251.981 113.006 252.847 111.43L256.156 105.758C257.102 104.182 258.441 102.843 260.175 101.74C261.908 100.637 263.562 100.085 265.138 100.085C267.266 100.085 268.329 101.03 268.329 102.921C268.329 103.788 268.053 104.733 267.502 105.758L261.002 117.103C260.056 118.679 258.717 120.018 256.984 121.121C255.25 122.224 253.596 122.776 252.02 122.776H212.311C210.735 122.776 209.08 123.327 207.347 124.431C205.614 125.534 204.274 126.873 203.329 128.449L190.211 151.14C189.659 152.164 189.383 153.109 189.383 153.976C189.383 155.867 190.486 156.812 192.693 156.812H272.111C273.608 156.812 275.223 156.261 276.956 155.158C278.769 154.055 280.108 152.715 280.975 151.14L310.52 100.085C311.072 99.0607 311.347 98.1153 311.347 97.2486C311.347 95.3577 310.284 94.4123 308.157 94.4123H228.738ZM244.575 145.467C243.708 147.043 242.368 148.382 240.556 149.485C238.823 150.588 237.168 151.14 235.593 151.14C233.465 151.14 232.402 150.194 232.402 148.303C232.402 147.437 232.678 146.491 233.229 145.467L239.847 134.121C240.714 132.546 242.014 131.206 243.747 130.103C245.481 129 247.135 128.449 248.711 128.449C250.917 128.449 252.02 129.394 252.02 131.285C252.02 132.152 251.744 133.097 251.193 134.121L244.575 145.467ZM376.725 94.4123C375.149 94.4123 373.456 94.9638 371.643 96.0668C369.91 97.1698 368.61 98.5092 367.743 100.085L341.507 145.467C340.64 147.043 339.301 148.382 337.489 149.485C335.755 150.588 334.101 151.14 332.525 151.14C330.398 151.14 329.334 150.194 329.334 148.303C329.334 147.437 329.61 146.491 330.161 145.467L356.398 100.085C356.949 99.0607 357.225 98.1153 357.225 97.2486C357.225 95.3577 356.162 94.4123 354.034 94.4123H325.671C324.095 94.4123 322.401 94.9638 320.589 96.0668C318.855 97.1698 317.555 98.5092 316.689 100.085L287.143 151.14C286.592 152.164 286.316 153.109 286.316 153.976C286.316 155.867 287.419 156.812 289.625 156.812H369.043C370.54 156.812 372.156 156.261 373.889 155.158C375.701 154.055 377.04 152.715 377.907 151.14L407.453 100.085C408.004 99.0607 408.28 98.1153 408.28 97.2486C408.28 95.3577 407.216 94.4123 405.089 94.4123H376.725ZM441.768 128.449H481.477C483.053 128.449 484.707 127.897 486.441 126.794C488.253 125.691 489.592 124.352 490.459 122.776L503.577 100.085C504.129 99.0607 504.404 98.1153 504.404 97.2486C504.404 95.3577 503.341 94.4123 501.214 94.4123H421.795C420.219 94.4123 418.525 94.9638 416.713 96.0668C414.98 97.1698 413.68 98.5092 412.813 100.085L383.268 151.14C382.716 152.164 382.44 153.109 382.44 153.976C382.44 155.867 383.543 156.812 385.75 156.812H465.168C466.665 156.812 468.28 156.261 470.013 155.158C471.826 154.055 473.165 152.715 474.032 151.14L480.65 139.794C481.201 138.77 481.477 137.824 481.477 136.958C481.477 135.067 480.413 134.121 478.286 134.121H449.922C448.347 134.121 446.653 134.673 444.841 135.776C443.107 136.879 441.807 138.218 440.941 139.794L437.632 145.467C436.765 147.043 435.425 148.382 433.613 149.485C431.88 150.588 430.225 151.14 428.65 151.14C426.522 151.14 425.459 150.194 425.459 148.303C425.459 147.437 425.735 146.491 426.286 145.467L432.904 134.121C433.771 132.546 435.071 131.206 436.804 130.103C438.538 129 440.192 128.449 441.768 128.449ZM449.213 105.758C450.159 104.182 451.498 102.843 453.232 101.74C454.965 100.637 456.619 100.085 458.195 100.085C460.322 100.085 461.386 101.03 461.386 102.921C461.386 103.788 461.11 104.733 460.559 105.758L454.059 117.103C453.113 118.679 451.774 120.018 450.041 121.121C448.307 122.224 446.653 122.776 445.077 122.776C442.871 122.776 441.768 121.831 441.768 119.94C441.768 119.073 442.083 118.127 442.713 117.103L449.213 105.758ZM541.21 54.1121C540.737 53.403 540.146 53.0485 539.437 53.0485C538.177 53.0485 536.955 54.0727 535.773 56.1212L516.864 88.7395L480.819 151.14C480.267 152.164 479.992 153.109 479.992 153.976C479.992 155.867 481.095 156.812 483.301 156.812H511.664C513.161 156.812 514.776 156.261 516.51 155.158C518.322 154.055 519.661 152.715 520.528 151.14L556.219 89.4486C557.164 87.794 557.637 85.9819 557.637 84.0122C557.637 82.6728 557.401 81.6092 556.928 80.8213L541.21 54.1121Z" fill="white"/>
<path d="M258.111 173.452C258.309 172.79 258.918 172.337 259.609 172.337H263.38C264.427 172.337 265.178 173.347 264.878 174.35L259.952 190.768C259.754 191.43 259.145 191.883 258.454 191.883H254.683C253.636 191.883 252.885 190.873 253.185 189.87L258.111 173.452Z" fill="white"/>
<path d="M238.221 173.452C238.419 172.79 239.028 172.337 239.719 172.337H243.49C244.537 172.337 245.289 173.347 244.988 174.35L240.062 190.768C239.864 191.43 239.255 191.882 238.565 191.882H234.793C233.746 191.882 232.995 190.873 233.296 189.87L238.221 173.452Z" fill="white"/>
<path d="M278.001 173.452C278.199 172.79 278.808 172.337 279.498 172.337H283.27C284.317 172.337 285.068 173.347 284.767 174.35L279.842 190.768C279.643 191.43 279.035 191.883 278.344 191.883H274.573C273.526 191.883 272.774 190.873 273.075 189.87L278.001 173.452Z" fill="white"/>
<path d="M297.89 173.452C298.089 172.79 298.698 172.337 299.388 172.337H328.03C329.077 172.337 329.829 173.347 329.528 174.35L327.2 182.11L324.602 190.768C324.404 191.43 323.795 191.883 323.105 191.883H294.463C293.415 191.883 292.664 190.873 292.965 189.87L297.89 173.452Z" fill="white"/>
<path d="M539.191 0L543.687 53.3129L597 57.8094L543.687 62.3059L539.191 115.619L534.694 62.3059L481.381 57.8094L534.694 53.3129L539.191 0Z" fill="white"/>
</svg>
