<svg width="401" height="67" viewBox="0 0 401 67" fill="none" xmlns="http://www.w3.org/2000/svg">
<path d="M96.5853 31.033C96.5853 28.9659 94.9121 27.2903 92.8482 27.2903C90.7842 27.2903 89.1111 28.9659 89.1111 31.033V35.8004C89.1111 37.8674 90.7842 39.5431 92.8482 39.5431C94.9121 39.5431 96.5853 37.8674 96.5853 35.8004V31.033Z" fill="white"/>
<path d="M110.42 7.64135C110.42 5.57433 108.747 3.89868 106.683 3.89868C104.619 3.89868 102.946 5.57433 102.946 7.64135V59.1921C102.946 61.2591 104.619 62.9348 106.683 62.9348C108.747 62.9348 110.42 61.2591 110.42 59.1921V7.64135Z" fill="white"/>
<path d="M124.254 7.64135C124.254 5.57433 122.581 3.89868 120.517 3.89868C118.453 3.89868 116.78 5.57433 116.78 7.64135V59.1921C116.78 61.2591 118.453 62.9348 120.517 62.9348C122.581 62.9348 124.254 61.2591 124.254 59.1921V7.64135Z" fill="white"/>
<path d="M138.1 27.1344C138.1 25.0674 136.427 23.3917 134.363 23.3917C132.299 23.3917 130.626 25.0674 130.626 27.1344V39.6991C130.626 41.7661 132.299 43.4417 134.363 43.4417C136.427 43.4417 138.1 41.7661 138.1 39.6991V27.1344Z" fill="white"/>
<path d="M151.934 7.64135C151.934 5.57433 150.261 3.89868 148.197 3.89868C146.133 3.89868 144.46 5.57433 144.46 7.64135V59.1921C144.46 61.2591 146.133 62.9348 148.197 62.9348C150.261 62.9348 151.934 61.2591 151.934 59.1921V7.64135Z" fill="white"/>
<path d="M165.769 19.337C165.769 17.27 164.096 15.5944 162.032 15.5944C159.968 15.5944 158.295 17.27 158.295 19.337V47.4961C158.295 49.5632 159.968 51.2388 162.032 51.2388C164.096 51.2388 165.769 49.5632 165.769 47.4961V19.337Z" fill="white"/>
<path d="M179.603 31.033C179.603 28.9659 177.93 27.2903 175.866 27.2903C173.802 27.2903 172.129 28.9659 172.129 31.033V35.8004C172.129 37.8674 173.802 39.5431 175.866 39.5431C177.93 39.5431 179.603 37.8674 179.603 35.8004V31.033Z" fill="white"/>
<path d="M193.449 11.5399C193.449 9.47289 191.776 7.79724 189.712 7.79724C187.648 7.79724 185.975 9.47289 185.975 11.5399V55.2935C185.975 57.3605 187.648 59.0361 189.712 59.0361C191.776 59.0361 193.449 57.3605 193.449 55.2935V11.5399Z" fill="white"/>
<path d="M207.284 23.2357C207.284 21.1687 205.61 19.493 203.546 19.493C201.483 19.493 199.809 21.1687 199.809 23.2357V43.5976C199.809 45.6646 201.483 47.3403 203.546 47.3403C205.61 47.3403 207.284 45.6646 207.284 43.5976V23.2357Z" fill="white"/>
<path d="M221.118 19.337C221.118 17.27 219.445 15.5944 217.381 15.5944C215.317 15.5944 213.644 17.27 213.644 19.337V47.4961C213.644 49.5632 215.317 51.2388 217.381 51.2388C219.445 51.2388 221.118 49.5632 221.118 47.4961V19.337Z" fill="white"/>
<path d="M234.953 15.4386C234.953 13.3716 233.279 11.6959 231.215 11.6959C229.152 11.6959 227.478 13.3716 227.478 15.4386V51.3949C227.478 53.4619 229.152 55.1376 231.215 55.1376C233.279 55.1376 234.953 53.4619 234.953 51.3949V15.4386Z" fill="white"/>
<path d="M248.787 3.74267C248.787 1.67565 247.114 0 245.05 0C242.986 0 241.313 1.67565 241.313 3.74267V63.0907C241.313 65.1577 242.986 66.8333 245.05 66.8333C247.114 66.8333 248.787 65.1577 248.787 63.0907V3.74267Z" fill="white"/>
<path d="M262.633 27.1344C262.633 25.0674 260.96 23.3917 258.896 23.3917C256.832 23.3917 255.159 25.0674 255.159 27.1344V39.6991C255.159 41.7661 256.832 43.4417 258.896 43.4417C260.96 43.4417 262.633 41.7661 262.633 39.6991V27.1344Z" fill="white"/>
<path d="M276.467 31.033C276.467 28.9659 274.794 27.2903 272.73 27.2903C270.666 27.2903 268.993 28.9659 268.993 31.033V35.8004C268.993 37.8674 270.666 39.5431 272.73 39.5431C274.794 39.5431 276.467 37.8674 276.467 35.8004V31.033Z" fill="white"/>
<path d="M290.302 31.033C290.302 28.9659 288.629 27.2903 286.565 27.2903C284.501 27.2903 282.828 28.9659 282.828 31.033V35.8004C282.828 37.8674 284.501 39.5431 286.565 39.5431C288.629 39.5431 290.302 37.8674 290.302 35.8004V31.033Z" fill="white"/>
<path d="M304.136 15.4386C304.136 13.3716 302.463 11.6959 300.399 11.6959C298.335 11.6959 296.662 13.3716 296.662 15.4386V51.3949C296.662 53.4619 298.335 55.1376 300.399 55.1376C302.463 55.1376 304.136 53.4619 304.136 51.3949V15.4386Z" fill="white"/>
<path d="M317.982 27.1344C317.982 25.0674 316.309 23.3917 314.245 23.3917C312.181 23.3917 310.508 25.0674 310.508 27.1344V39.6991C310.508 41.7661 312.181 43.4417 314.245 43.4417C316.309 43.4417 317.982 41.7661 317.982 39.6991V27.1344Z" fill="white"/>
<path d="M331.816 23.2357C331.816 21.1687 330.143 19.493 328.079 19.493C326.015 19.493 324.342 21.1687 324.342 23.2357V43.5976C324.342 45.6646 326.015 47.3403 328.079 47.3403C330.143 47.3403 331.816 45.6646 331.816 43.5976V23.2357Z" fill="white"/>
<path d="M345.651 23.2357C345.651 21.1687 343.978 19.493 341.914 19.493C339.85 19.493 338.177 21.1687 338.177 23.2357V43.5976C338.177 45.6646 339.85 47.3403 341.914 47.3403C343.978 47.3403 345.651 45.6646 345.651 43.5976V23.2357Z" fill="white"/>
<path d="M359.485 15.4386C359.485 13.3716 357.812 11.6959 355.748 11.6959C353.684 11.6959 352.011 13.3716 352.011 15.4386V51.3949C352.011 53.4619 353.684 55.1376 355.748 55.1376C357.812 55.1376 359.485 53.4619 359.485 51.3949V15.4386Z" fill="white"/>
<path d="M373.32 3.74267C373.32 1.67565 371.647 0 369.583 0C367.519 0 365.846 1.67565 365.846 3.74267V63.0907C365.846 65.1577 367.519 66.8333 369.583 66.8333C371.647 66.8333 373.32 65.1577 373.32 63.0907V3.74267Z" fill="white"/>
<path d="M387.165 3.74267C387.165 1.67565 385.492 0 383.428 0C381.364 0 379.691 1.67565 379.691 3.74267V63.0907C379.691 65.1577 381.364 66.8333 383.428 66.8333C385.492 66.8333 387.165 65.1577 387.165 63.0907V3.74267Z" fill="white"/>
<path d="M401 31.033C401 28.9659 399.327 27.2903 397.263 27.2903C395.199 27.2903 393.526 28.9659 393.526 31.033V35.8004C393.526 37.8674 395.199 39.5431 397.263 39.5431C399.327 39.5431 401 37.8674 401 35.8004V31.033Z" fill="white"/>
<path d="M33.4167 0C40.0259 0 46.4866 1.95985 51.982 5.63172C57.4773 9.30359 61.7604 14.5226 64.2896 20.6287C66.8189 26.7348 67.4806 33.4537 66.1912 39.9359C64.9019 46.4181 61.7192 52.3724 57.0458 57.0458C52.3724 61.7192 46.4181 64.9019 39.9359 66.1912C33.4537 67.4806 26.7348 66.8189 20.6287 64.2896C14.5226 61.7604 9.30359 57.4773 5.63172 51.982C1.95985 46.4866 0 40.0259 0 33.4167C0 24.554 3.52067 16.0544 9.78752 9.78752C16.0544 3.52067 24.554 0 33.4167 0V0ZM48.7104 48.12C48.9728 47.6838 49.0646 47.166 48.9679 46.6662C48.8712 46.1664 48.593 45.7201 48.1868 45.4133C48.0153 45.2881 47.8368 45.1728 47.6522 45.0679C45.568 43.8265 43.3575 42.8109 41.0579 42.0382C36.9014 40.6774 32.555 39.9855 28.1814 39.9886C26.6999 40.0666 25.2073 40.1223 23.7258 40.2448C21.0717 40.4803 18.4367 40.8971 15.8395 41.4924C15.6345 41.5353 15.4333 41.5949 15.238 41.6706C14.7919 41.8491 14.4232 42.1795 14.197 42.6034C13.9707 43.0273 13.9015 43.5175 14.0016 43.9875C14.0767 44.4625 14.3211 44.8944 14.6895 45.2034C15.058 45.5125 15.5257 45.678 16.0066 45.6694C16.3371 45.6589 16.6656 45.6141 16.9868 45.5358C20.1576 44.822 23.3859 44.3933 26.6331 44.2548C29.1467 44.1515 31.6645 44.2896 34.1518 44.6669C38.1817 45.2569 42.059 46.6225 45.5692 48.6881C45.7487 48.7993 45.9347 48.8997 46.1261 48.9888C46.585 49.1906 47.1016 49.2182 47.5794 49.0665C48.0571 48.9147 48.4632 48.5941 48.7215 48.1646L48.7104 48.12ZM52.8095 38.9861C53.1602 38.3984 53.2656 37.6963 53.1031 37.0315C52.9405 36.3666 52.523 35.7924 51.9406 35.4328L51.5508 35.1989C48.9585 33.6665 46.2007 32.4333 43.3303 31.5231C37.6851 29.713 31.7656 28.91 25.8422 29.1505C23.073 29.2428 20.3179 29.5858 17.6106 30.1753C16.4967 30.4203 15.3828 30.7099 14.3358 31.0329C13.828 31.1931 13.3842 31.5101 13.0679 31.9384C12.7517 32.3668 12.5794 32.8843 12.5758 33.4167C12.5638 33.9395 12.7107 34.4536 12.9971 34.8911C13.2835 35.3287 13.6959 35.669 14.1798 35.8672C14.7811 36.0832 15.4387 36.0832 16.04 35.8672C19.7974 34.7792 23.6905 34.2316 27.6022 34.2409C30.5583 34.2432 33.5078 34.5192 36.413 35.0652C40.1208 35.731 43.7142 36.9239 47.0841 38.6074C47.8193 38.9861 48.5321 39.4094 49.2562 39.8104C49.8378 40.168 50.5369 40.282 51.202 40.1278C51.8672 39.9735 52.4447 39.5633 52.8095 38.9861V38.9861ZM53.1993 29.5292C53.6719 29.8167 54.2126 29.9728 54.7656 29.9815C55.3187 29.9902 55.864 29.8512 56.3454 29.5787C56.8268 29.3062 57.2267 28.9102 57.5039 28.4316C57.7811 27.9529 57.9255 27.409 57.9222 26.8559C57.9222 26.6331 57.9222 26.4103 57.8331 26.1875C57.7369 25.752 57.5478 25.3424 57.2786 24.9867C57.0095 24.6311 56.6667 24.3377 56.2737 24.1268C54.0056 22.8151 51.6141 21.7294 49.1336 20.8854C43.0746 18.8602 36.7411 17.7746 30.3535 17.6663C27.7521 17.5884 25.1483 17.6665 22.5563 17.9002C20.1128 18.1056 17.6863 18.4778 15.2937 19.0141C14.3246 19.2369 13.3667 19.4819 12.4199 19.7938C11.8013 20.004 11.2668 20.4078 10.8957 20.9455C10.5245 21.4832 10.3364 22.1261 10.3592 22.779C10.3748 23.4371 10.5989 24.0732 10.9993 24.5957C11.3996 25.1182 11.9556 25.5001 12.5869 25.6863C13.1693 25.8534 13.7868 25.8534 14.3692 25.6863C15.3383 25.4301 16.3185 25.1628 17.2987 24.9511C19.9627 24.3968 22.6671 24.0578 25.3855 23.9375C27.76 23.8049 30.14 23.8049 32.5144 23.9375C34.7965 24.0745 37.0689 24.3423 39.3203 24.7395C42.5545 25.2831 45.7237 26.1603 48.7772 27.3571C50.3107 27.9989 51.7992 28.7431 53.2328 29.5849" fill="white"/>
</svg>
