<svg width="1213" height="973" viewBox="0 0 1213 973" fill="none" xmlns="http://www.w3.org/2000/svg">
<path d="M422.125 96.8614L422.385 164.066L486.38 184.586L422.545 205.601L422.805 272.806L383.093 218.589L277 261.341L358.55 185.081L318.838 130.864L382.833 151.384L422.125 96.8614Z" fill="white" fill-opacity="0.08"/>
<path d="M188.088 844.175L191.387 806.887L156.942 792.227L193.425 783.841L196.724 746.552L215.973 778.658L277.008 760.38L227.87 798.501L247.119 830.607L212.675 815.947L188.088 844.175Z" fill="white" fill-opacity="0.08"/>
<path d="M888.39 647.451L971.774 632.933L983.734 549.144L1023.31 623.961L1106.69 609.443L1047.77 670.2L1123.26 792.891L1011.35 707.75L952.423 768.507L964.383 684.718L888.39 647.451Z" fill="white" fill-opacity="0.08"/>
</svg>
