<svg width="1920" height="700" viewBox="0 0 1920 700" fill="none" xmlns="http://www.w3.org/2000/svg">
<path d="M313.125 143.861L313.385 211.066L377.38 231.586L313.545 252.601L313.805 319.806L274.093 265.589L168 308.341L249.55 232.081L209.838 177.864L273.833 198.384L313.125 143.861Z" fill="white" fill-opacity="0.08"/>
<path d="M428.088 584.175L431.387 546.887L396.942 532.227L433.425 523.841L436.724 486.552L455.973 518.658L517.008 500.38L467.87 538.501L487.119 570.607L452.675 555.947L428.088 584.175Z" fill="white" fill-opacity="0.08"/>
<path d="M1430.96 346.82L1526.61 330.166L1540.33 234.048L1585.73 319.874L1681.38 303.22L1613.79 372.917L1700.38 513.661L1572.01 415.992L1504.41 485.688L1518.13 389.57L1430.96 346.82Z" fill="white" fill-opacity="0.08"/>
</svg>
