<svg width="73" height="84" viewBox="0 0 73 84" fill="none" xmlns="http://www.w3.org/2000/svg">
<path fill-rule="evenodd" clip-rule="evenodd" d="M38.274 0.460192L71.124 18.7218C72.2808 19.3648 73 20.5845 73 21.9104C73 24.4451 72.584 84 36.5001 84C0.416092 84 0 24.4451 0 21.9104C0 20.5845 0.71905 19.3648 1.8761 18.7218L34.726 0.460192C35.8319 -0.153397 37.1681 -0.153397 38.274 0.460192ZM36.4032 23.7223C41.4438 23.7223 45.5281 27.8092 45.5281 32.8531C45.5281 37.8969 41.4438 41.9838 36.4032 41.9838C31.3624 41.9838 27.2781 37.8969 27.2781 32.8531C27.2781 27.8092 31.3624 23.7223 36.4032 23.7223ZM36.4026 46.553C28.004 46.553 22.7151 51.8452 22.7151 60.2492H50.0901C50.0901 51.8452 44.8013 46.553 36.4026 46.553Z" fill="white"/>
</svg>
