<svg width="15" height="15" viewBox="0 0 15 15" fill="none" xmlns="http://www.w3.org/2000/svg">
<path d="M9.69972 10.551L10.553 9.71535L8.11278 7.25749V4.20721H6.98097V7.71892L9.69972 10.551ZM7.50122 13.9708C6.61092 13.9708 5.77267 13.8012 4.98649 13.4621C4.20031 13.123 3.51384 12.6602 2.92708 12.0737C2.34031 11.4871 1.8773 10.8009 1.53806 10.015C1.19883 9.22914 1.02921 8.39113 1.02921 7.50098C1.02921 6.61084 1.1994 5.77235 1.5398 4.98551C1.88018 4.19868 2.34286 3.51278 2.92781 2.92782C3.51277 2.34286 4.19839 1.87872 4.98467 1.53539C5.77096 1.19205 6.6094 1.02039 7.5 1.02039C8.39061 1.02039 9.22905 1.19205 10.0153 1.53539C10.8016 1.87872 11.4872 2.34286 12.0722 2.92782C12.6571 3.51278 13.1213 4.1984 13.4646 4.98468C13.808 5.77096 13.9796 6.60941 13.9796 7.50001C13.9796 8.39061 13.808 9.22906 13.4646 10.0153C13.1213 10.8016 12.6571 11.4872 12.0722 12.0722C11.4872 12.6572 10.8017 13.1198 10.0157 13.4602C9.22969 13.8006 8.39152 13.9708 7.50122 13.9708Z" fill="#1E1E22"/>
</svg>
