<?xml version="1.0" standalone="no"?>
<!DOCTYPE svg PUBLIC "-//W3C//DTD SVG 20010904//EN"
 "http://www.w3.org/TR/2001/REC-SVG-20010904/DTD/svg10.dtd">
<svg version="1.0" xmlns="http://www.w3.org/2000/svg"
 width="1200.000000pt" height="1200.000000pt" viewBox="0 0 1200.000000 1200.000000"
 preserveAspectRatio="xMidYMid meet">
<metadata>
Created by potrace 1.14, written by Peter Selinger 2001-2017
</metadata>
<g transform="translate(0.000000,1200.000000) scale(0.100000,-0.100000)"
fill="#000000" stroke="none">
<path d="M6532 10995 c-57 -25 -188 -176 -254 -293 -33 -57 -34 -58 -148 -67
-98 -9 -257 -38 -381 -71 l-100 -26 -48 45 c-87 81 -269 157 -377 157 -130 0
-206 -74 -268 -262 -19 -57 -40 -147 -47 -201 l-13 -98 -100 -70 c-56 -38
-112 -78 -126 -89 -24 -18 -28 -18 -80 -3 -35 10 -101 16 -185 17 -147 1 -192
-12 -252 -74 -87 -89 -106 -307 -42 -474 l18 -49 -77 -136 -77 -135 -85 -17
c-158 -31 -308 -95 -355 -151 -31 -37 -48 -98 -39 -146 9 -53 52 -128 95 -167
42 -38 42 -38 -44 -50 -38 -5 -57 -16 -102 -56 -63 -59 -95 -109 -125 -198
-12 -36 -32 -85 -44 -110 -32 -64 -52 -129 -76 -251 -12 -58 -26 -107 -31
-109 -29 -10 -96 -71 -111 -101 -39 -76 -12 -178 72 -273 35 -40 58 -88 108
-226 15 -42 14 -54 -17 -245 -17 -111 -34 -211 -36 -223 -3 -14 -28 -34 -72
-59 -148 -81 -236 -158 -263 -230 -19 -48 -14 -120 11 -171 29 -60 118 -155
187 -199 61 -40 60 -32 37 -244 -8 -74 -15 -138 -15 -142 0 -4 -10 -10 -22
-14 -33 -10 -219 -138 -277 -190 -85 -77 -101 -164 -51 -271 29 -59 151 -183
208 -209 23 -10 43 -24 45 -29 7 -17 -85 -590 -96 -601 -2 -2 -30 7 -63 20
-32 13 -117 36 -189 50 -555 111 -1264 112 -1670 1 -284 -77 -615 -263 -887
-498 l-68 -58 0 -180 0 -180 46 -122 c65 -171 140 -320 402 -797 101 -185 217
-387 306 -534 36 -59 68 -116 71 -127 5 -15 -2 -33 -24 -63 -18 -22 -53 -71
-79 -108 -26 -37 -50 -67 -53 -68 -4 0 -36 46 -71 102 -395 625 -569 888 -590
888 -4 0 -8 -57 -8 -127 l0 -127 40 -78 c22 -42 46 -102 52 -133 l11 -57 -51
-47 -52 -48 0 -421 0 -421 35 -3 c47 -4 49 -21 3 -32 l-38 -10 0 -199 c0 -170
2 -198 14 -188 20 17 109 148 135 198 16 32 29 45 54 51 29 8 37 4 78 -30 51
-43 201 -108 265 -116 57 -6 106 12 127 47 23 38 22 100 -4 246 -12 66 -22
129 -22 140 -1 21 214 312 428 580 269 336 391 430 635 491 92 23 119 26 220
21 186 -8 262 -49 295 -158 l19 -61 -152 -457 c-262 -790 -353 -1203 -369
-1683 l-6 -188 3011 0 3012 0 5 23 c3 12 25 119 49 237 24 118 64 310 89 425
24 116 52 254 62 307 22 116 27 128 52 111 49 -33 449 -272 608 -363 99 -56
209 -119 245 -140 285 -164 621 -346 901 -486 l227 -114 1011 0 1011 0 0 1238
-1 1237 -72 56 c-256 200 -652 398 -1047 525 -74 24 -167 52 -205 64 l-71 20
-41 88 c-75 158 -153 242 -225 242 -12 0 -41 -9 -63 -19 -49 -22 -188 -133
-218 -173 -20 -27 -25 -29 -67 -23 -150 19 -351 23 -469 9 -68 -8 -127 -17
-132 -20 -11 -7 -11 0 2 90 l11 75 132 55 c174 74 344 176 421 251 147 144
268 381 325 634 63 282 82 549 56 771 -16 135 -20 227 -15 323 5 79 -55 120
-259 178 -316 90 -592 129 -923 129 l-157 0 78 78 c66 65 81 87 94 134 30 102
-8 186 -132 294 -42 37 -79 71 -80 76 -2 5 27 130 64 278 l68 270 34 11 c60
20 207 126 279 203 56 58 75 87 89 131 14 42 23 57 41 61 61 16 123 141 123
247 -1 135 -76 209 -264 261 -31 9 -80 23 -110 31 l-53 15 -6 262 c-4 145 -13
308 -21 363 -13 94 -13 101 4 120 42 47 177 246 212 313 68 130 45 218 -71
277 -62 31 -264 97 -334 109 l-70 11 -63 114 c-94 168 -149 253 -231 358 l-74
95 12 59 c7 36 10 114 7 201 -5 148 -20 211 -66 261 -30 33 -94 59 -157 65
-92 7 -287 -47 -369 -103 l-35 -24 -108 44 c-256 102 -505 174 -772 220 -137
24 -160 33 -161 63 0 19 -57 128 -105 202 -92 142 -176 187 -273 145z m106
-227 c28 -42 72 -122 72 -132 0 -7 -220 5 -243 13 -15 6 -6 20 54 84 39 42 75
77 79 77 5 0 22 -19 38 -42z m-1322 -239 c32 -12 73 -31 93 -42 l35 -21 -50
-20 c-27 -11 -109 -50 -181 -87 -73 -37 -133 -65 -133 -61 0 23 76 198 97 222
30 36 60 38 139 9z m1254 -94 c163 -8 190 -14 190 -36 0 -28 114 -136 176
-166 50 -24 144 -106 144 -125 0 -5 14 -17 31 -27 l30 -19 -66 -128 c-37 -70
-85 -154 -107 -186 -100 -149 -103 -216 -13 -389 18 -36 40 -94 49 -130 8 -35
23 -84 34 -109 32 -74 23 -168 -24 -266 l-38 -79 -1 -142 c0 -101 4 -146 13
-155 19 -19 32 2 45 68 12 58 13 59 47 62 38 4 78 36 112 90 22 35 29 130 15
192 -17 74 -15 100 9 136 37 54 48 123 38 229 -24 247 15 478 96 569 l28 31
89 -94 c48 -51 93 -101 99 -110 6 -9 49 -101 94 -204 46 -103 91 -194 101
-201 50 -35 99 -229 99 -395 0 -42 4 -114 10 -161 5 -47 12 -185 16 -307 7
-218 6 -223 -13 -223 -28 0 -386 57 -1033 165 -528 88 -791 127 -1037 156
l-101 12 27 22 c22 19 28 37 39 106 14 95 66 214 125 292 21 26 37 54 37 62 0
39 51 114 136 202 84 86 105 116 144 208 18 40 30 101 30 149 0 45 5 55 58
120 33 39 64 80 70 92 13 24 26 114 25 162 -1 22 9 50 28 80 16 25 29 55 29
66 0 33 -37 85 -65 92 l-25 6 20 28 c25 35 25 50 1 50 -25 0 -163 -148 -243
-261 -34 -49 -83 -128 -108 -176 -25 -49 -59 -101 -74 -118 -45 -48 -58 -79
-72 -165 -16 -103 -61 -195 -151 -311 -76 -96 -147 -209 -167 -265 -9 -27 -36
-97 -58 -156 -46 -120 -49 -158 -19 -199 12 -16 21 -31 21 -35 0 -4 8 -13 18
-21 15 -12 13 -13 -23 -9 -52 7 -448 48 -835 86 -267 26 -590 49 -687 50 l-32
0 25 58 c95 217 290 573 391 715 69 97 234 270 358 377 212 182 560 389 810
482 99 37 241 82 320 102 148 37 420 67 545 60 30 -2 107 -6 170 -9z m1811
-205 c4 -14 7 -60 8 -103 l1 -79 -62 51 c-35 28 -86 66 -115 84 -29 17 -53 34
-53 38 0 11 118 37 165 36 43 -2 50 -5 56 -27z m-4001 -477 c-46 -49 -93 -97
-103 -108 -19 -20 -19 -19 -15 55 3 42 12 89 22 108 l17 32 81 0 82 0 -84 -87z
m2622 -176 c-11 -77 -18 -105 -26 -97 -6 6 -11 39 -11 73 0 48 5 71 24 100 13
21 24 37 26 35 1 -2 -5 -52 -13 -111z m2137 -519 c57 -24 106 -49 108 -55 5
-11 -117 -206 -124 -199 -2 1 -16 47 -32 102 -17 55 -39 121 -50 147 -11 26
-17 47 -13 47 4 0 54 -19 111 -42z m-5281 -116 c-10 -25 -83 -188 -85 -192 -5
-5 -45 43 -74 88 -27 42 -20 51 71 86 69 26 94 31 88 18z m956 -471 c17 -6 3
-28 -109 -167 -203 -251 -842 -1009 -1020 -1209 -25 -28 -52 -60 -60 -73 -9
-12 -23 -22 -32 -22 -19 0 -63 38 -63 55 0 6 35 47 78 91 44 43 173 198 288
344 265 336 417 519 619 744 88 98 173 193 188 212 30 35 66 43 111 25z m374
-36 c9 -8 -1115 -1482 -1191 -1562 -28 -30 -37 -33 -87 -33 -47 0 -61 5 -93
31 -20 17 -37 36 -37 44 0 38 994 1282 1194 1493 l41 44 85 -7 c47 -3 86 -8
88 -10z m2116 -304 c6 -8 -186 -253 -338 -431 -85 -100 -117 -137 -397 -450
-96 -108 -244 -275 -329 -373 l-155 -177 -22 26 c-11 15 -28 44 -36 66 l-15
38 166 188 c213 239 270 300 710 750 358 365 395 398 416 363z m237 -37 c19
-4 29 -11 26 -18 -9 -23 -244 -362 -384 -554 -161 -220 -739 -989 -762 -1014
-15 -16 -20 -15 -86 13 -38 16 -83 39 -98 52 l-28 22 122 160 c233 305 548
692 835 1023 316 365 280 334 375 316z m1701 -806 c32 -7 58 -17 58 -23 0 -22
-163 -166 -174 -154 -2 2 3 46 12 97 17 103 12 99 104 80z m-3412 -331 c17
-83 70 -206 121 -281 46 -69 141 -162 217 -210 30 -20 32 -24 30 -76 -2 -70
23 -129 84 -194 26 -27 49 -61 52 -75 15 -72 83 -129 226 -191 41 -17 80 -33
85 -34 15 -4 105 -44 143 -64 47 -24 54 -42 38 -95 -17 -56 -43 -94 -118 -172
-103 -109 -132 -217 -108 -399 17 -128 8 -189 -37 -263 -79 -126 -93 -161 -93
-232 0 -36 7 -106 16 -156 25 -140 18 -174 -63 -338 -39 -78 -75 -158 -79
-177 -4 -19 -8 -109 -9 -200 0 -141 -3 -170 -18 -199 -14 -24 -16 -36 -8 -44
18 -18 43 3 72 59 20 40 28 48 37 37 19 -20 37 -6 69 55 16 31 48 91 70 132
49 90 89 239 79 291 -4 24 -14 39 -30 47 -20 9 -29 5 -70 -30 -45 -39 -70 -76
-108 -163 l-18 -40 6 34 c3 19 35 93 70 165 37 75 70 158 77 194 13 62 13 63
32 43 11 -13 31 -21 51 -21 28 0 35 5 54 46 27 54 24 96 -11 169 -20 42 -29
50 -54 53 -29 3 -31 0 -50 -62 -10 -36 -22 -62 -26 -58 -14 14 -28 147 -20
189 10 53 60 140 71 123 4 -7 7 -35 5 -62 -2 -44 1 -51 22 -59 19 -7 31 -4 54
11 50 36 96 102 108 155 12 57 12 113 -1 121 -4 3 -6 9 -3 14 3 5 -4 15 -15
23 -11 7 -17 17 -12 22 13 15 -53 -6 -70 -22 -17 -15 -18 -13 -18 37 0 29 -5
92 -12 140 -6 47 -8 99 -4 115 l7 29 19 -41 c14 -32 25 -43 50 -48 26 -6 35
-2 57 21 31 33 73 120 73 151 0 12 11 34 24 50 21 26 58 89 55 95 -1 2 4 21 9
43 6 22 14 67 18 100 5 46 12 65 32 84 25 23 26 23 148 12 144 -14 233 -4 309
35 28 14 59 27 70 29 42 6 89 16 97 21 4 3 8 -4 8 -14 0 -11 6 -25 14 -31 11
-9 10 -29 -5 -124 -9 -61 -24 -132 -33 -157 -22 -60 -42 -190 -61 -390 -8 -91
-17 -183 -19 -205 -3 -22 -8 -85 -12 -139 -5 -81 -12 -109 -35 -153 -16 -30
-29 -62 -29 -70 0 -8 -11 -38 -25 -67 -14 -29 -29 -87 -35 -129 -5 -41 -18
-126 -29 -188 -10 -63 -38 -248 -62 -412 -37 -260 -41 -303 -30 -330 18 -45
25 -107 12 -107 -11 0 -29 29 -42 69 -5 17 -7 1 -6 -49 2 -41 6 -82 10 -91 7
-13 -24 -19 -225 -42 -447 -52 -576 -60 -908 -59 -257 0 -482 15 -745 48 -148
18 -337 52 -390 69 -52 17 -226 102 -340 165 -49 27 -137 68 -195 90 -82 32
-182 83 -228 115 -1 1 12 32 29 68 17 37 39 106 49 154 14 65 21 82 26 66 9
-31 39 -29 62 5 32 45 62 195 63 316 1 77 -27 216 -43 216 -4 0 -8 -3 -9 -7 0
-5 -3 -17 -5 -28 -12 -49 -22 -145 -27 -242 -1 -24 -4 -43 -7 -43 -3 0 -6 -8
-7 -17 -4 -45 -14 -78 -28 -92 -13 -14 -15 -13 -15 10 0 14 -20 104 -44 200
-103 405 -121 702 -57 909 18 58 183 432 188 426 9 -8 10 -73 2 -83 -7 -7 -6
-14 1 -18 5 -3 10 -16 10 -28 0 -18 2 -19 10 -7 7 10 9 -22 9 -100 -1 -63 -4
-102 -8 -86 -6 27 -7 28 -22 13 -9 -9 -19 -14 -21 -11 -3 2 -4 -11 -3 -30 2
-19 -2 -40 -9 -45 -10 -8 -13 -55 -7 -105 1 -4 12 -6 26 -4 14 3 25 0 26 -6 0
-6 9 7 19 29 10 21 16 43 14 47 -3 4 0 8 6 8 6 0 8 5 5 10 -3 6 -2 10 3 10 9
0 11 8 14 60 1 17 6 30 10 30 5 0 6 5 3 10 -3 6 -1 10 5 10 6 0 8 5 5 10 -3 6
-1 10 6 10 8 0 8 4 -1 15 -8 9 -9 15 -2 15 6 0 9 9 7 20 -2 11 1 20 6 20 6 0
7 5 4 10 -3 6 -2 10 3 10 5 0 9 16 7 35 -1 20 3 35 9 35 6 0 4 5 -4 10 -8 5
-10 10 -3 10 6 0 10 11 8 25 -1 14 1 25 4 25 4 0 7 19 6 43 0 23 5 45 10 49 6
5 4 8 -5 8 -13 0 -13 1 0 10 12 8 12 10 1 10 -8 0 -2 11 15 27 16 15 28 29 27
32 -1 3 5 20 12 36 15 32 56 185 75 277 6 31 17 59 24 61 7 3 26 27 41 54 15
26 41 61 56 77 20 19 29 38 29 61 0 28 5 34 40 50 23 10 45 25 49 33 4 8 42
20 84 28 266 50 496 246 652 554 29 58 66 121 81 141 16 19 38 52 49 73 l20
37 7 -123 c4 -68 12 -144 18 -171z m-2397 -8 c12 -12 47 -39 77 -60 30 -22 80
-57 110 -79 57 -41 170 -90 208 -90 23 0 91 -65 92 -88 0 -7 9 -30 20 -52 26
-50 26 -126 1 -199 -28 -82 -43 -156 -45 -217 0 -30 -3 -54 -6 -54 -3 0 -6
-39 -7 -88 -1 -86 -1 -86 14 -52 8 19 23 40 34 48 10 7 19 20 19 28 0 8 6 17
14 20 8 3 17 12 20 21 17 44 38 170 42 258 7 139 9 146 37 136 12 -5 56 -17
97 -26 41 -10 104 -30 140 -46 36 -15 93 -31 128 -35 34 -3 65 -10 67 -14 3
-4 -6 -38 -19 -76 -36 -103 -53 -176 -81 -340 -32 -194 -40 -220 -147 -468
-130 -303 -132 -314 -132 -581 0 -240 9 -299 90 -629 25 -105 34 -161 34 -225
-1 -125 -51 -331 -81 -331 -19 0 -158 68 -196 96 -114 84 -213 178 -305 288
-123 147 -253 333 -251 359 2 26 22 47 45 47 22 0 69 47 142 145 57 76 95 160
101 221 4 48 -5 124 -15 124 -4 0 -18 -42 -31 -92 -28 -110 -26 -104 -28 -124
-1 -14 -3 -14 -16 0 -12 12 -22 13 -45 4 -22 -7 -34 -7 -44 1 -9 8 -16 8 -20
2 -3 -5 0 -12 6 -15 7 -3 4 -4 -8 -1 -11 3 -37 -2 -57 -10 -21 -8 -37 -13 -37
-9 0 3 26 69 59 147 134 324 152 432 109 644 -12 59 -22 144 -22 188 -1 88 7
108 116 297 50 87 50 89 59 205 8 124 43 357 59 399 6 14 10 34 10 45 0 31
-40 20 -66 -18 -29 -43 -65 -234 -73 -388 -7 -120 -7 -120 -54 -205 -26 -47
-64 -119 -85 -160 -36 -73 -37 -78 -36 -180 0 -67 9 -146 23 -219 36 -180 17
-279 -114 -591 -41 -96 -79 -188 -85 -204 -10 -27 -12 -28 -27 -14 -18 19 -30
69 -44 188 -17 138 -30 189 -51 195 -10 4 -18 12 -18 18 0 7 18 129 39 272 43
283 60 417 91 715 36 340 49 450 80 659 17 112 30 210 30 217 0 19 7 18 33 -7z
m-298 -495 c-8 -76 -17 -139 -19 -141 -10 -10 -106 144 -106 170 0 21 126 125
138 113 2 -2 -4 -66 -13 -142z m1521 -104 c24 0 24 0 7 -35 -14 -29 -20 -34
-40 -29 -19 5 -32 -2 -64 -37 -22 -24 -38 -37 -36 -29 3 8 11 38 18 65 16 67
26 78 62 71 16 -3 40 -6 53 -6z m4275 -237 c22 -20 47 -50 56 -66 14 -27 13
-32 -5 -56 -31 -43 -176 -157 -170 -135 3 10 20 81 39 157 18 75 35 137 36
137 2 0 21 -17 44 -37z m-5891 -560 c0 -24 -30 -249 -38 -290 l-7 -33 -55 71
c-68 87 -83 114 -75 140 6 17 149 128 168 129 4 0 7 -8 7 -17z m6448 2 c81 -9
201 -27 267 -40 112 -23 350 -86 359 -96 12 -14 46 -409 46 -540 0 -279 -62
-590 -152 -774 -45 -90 -131 -215 -180 -261 -74 -71 -214 -149 -406 -230 -117
-49 -156 -74 -176 -112 -18 -34 -42 -189 -56 -362 -6 -74 -15 -180 -20 -235
-5 -55 -11 -164 -12 -242 l-3 -142 -87 -36 c-48 -20 -124 -59 -169 -86 -45
-27 -86 -46 -92 -42 -5 3 19 20 53 37 76 38 100 74 100 156 0 30 7 116 15 190
37 328 38 677 2 760 -18 42 -53 77 -136 133 -298 203 -390 275 -478 372 -153
170 -205 320 -233 677 -9 112 -8 170 6 325 9 103 19 235 23 293 5 94 8 105 26
108 11 2 85 25 165 52 183 61 291 87 405 98 154 16 571 14 733 -3z m-6478
-1225 c0 -12 -3 -12 -16 2 -9 9 -13 21 -9 28 9 14 25 -5 25 -30z m-256 -61 c5
-14 6 -42 2 -63 -6 -32 -23 -49 -149 -149 -78 -62 -206 -162 -284 -221 -79
-60 -143 -116 -143 -124 0 -8 14 -34 30 -58 17 -24 44 -65 62 -91 18 -26 40
-55 48 -63 20 -20 132 -190 208 -314 56 -93 238 -435 261 -494 20 -49 9 -116
-28 -165 -55 -74 -189 -301 -198 -337 -6 -20 -6 -49 -1 -66 17 -67 187 -224
483 -447 151 -114 198 -166 193 -214 -2 -17 0 -29 4 -27 4 3 8 0 8 -6 0 -6
-11 -15 -24 -22 -56 -25 -232 86 -537 338 -210 174 -299 291 -299 395 0 56 33
167 57 194 10 11 34 51 53 89 19 38 56 101 83 140 l49 71 -57 115 c-113 228
-293 520 -454 738 -50 67 -98 136 -107 153 -25 49 -21 122 9 168 25 38 333
280 473 373 40 26 76 53 80 59 12 20 108 58 139 56 22 -1 32 -9 39 -28z m227
-166 c16 -18 321 -247 417 -312 34 -23 62 -47 61 -54 0 -7 -32 -34 -72 -62
-58 -40 -91 -75 -170 -180 -57 -77 -106 -131 -117 -133 -11 -2 -20 1 -20 6 0
6 -13 81 -30 169 -30 165 -100 565 -100 576 0 13 17 7 31 -10z m5574 -495 c39
-25 97 -55 130 -67 73 -27 145 -92 145 -132 l0 -26 -94 49 c-104 53 -285 132
-329 143 -29 8 -29 8 -22 69 4 33 9 64 12 69 2 4 23 -8 46 -27 23 -18 74 -54
112 -78z m-4908 15 c28 -18 98 -57 154 -87 l103 -55 -29 -11 c-122 -47 -211
-80 -217 -80 -3 0 -12 17 -19 38 -6 20 -15 42 -19 47 -4 6 -17 40 -29 77 -24
77 -28 123 -8 112 6 -4 35 -23 64 -41z m573 -279 c37 -15 73 -36 80 -47 13
-22 160 -347 156 -347 -27 0 -236 -34 -274 -44 -30 -8 -59 -13 -66 -10 -7 3
-29 25 -50 49 -59 72 -147 107 -218 87 -20 -5 -42 -6 -49 -1 -7 4 -28 45 -45
91 -24 62 -29 86 -21 94 7 7 57 28 112 47 55 20 141 52 190 71 50 18 96 34
104 35 7 1 44 -11 81 -25z m4184 -30 c14 -5 13 -10 -3 -42 -38 -75 -231 -328
-466 -612 -121 -146 -340 -426 -499 -637 -123 -164 -130 -169 -281 -166 -60 1
-166 8 -235 17 -139 17 -699 66 -758 66 -64 0 -111 -18 -126 -49 -8 -15 -38
-91 -67 -167 -132 -355 -318 -638 -467 -711 -53 -26 -65 -28 -161 -26 -57 2
-174 12 -260 23 -223 28 -648 73 -1226 131 -219 21 -366 44 -396 60 -25 13
-24 45 0 59 34 18 278 23 496 11 314 -18 993 -80 1223 -111 40 -6 115 -10 165
-10 l91 0 68 69 c37 38 85 97 107 131 68 105 156 287 210 435 28 77 59 157 68
178 21 50 91 113 139 126 77 21 339 11 774 -30 118 -11 260 -23 316 -26 l101
-6 124 168 c152 207 346 454 499 640 64 77 153 189 199 248 73 95 91 112 153
145 38 20 86 49 105 65 34 26 74 34 107 21z m1966 -60 c18 -30 30 -57 27 -60
-8 -9 -187 28 -181 37 7 12 106 79 116 79 3 0 21 -25 38 -56z m-5707 -69 c237
-76 453 -117 817 -156 414 -43 851 -49 1195 -14 83 8 157 14 165 14 8 0 -79
-33 -195 -73 -362 -125 -558 -210 -1040 -451 -389 -195 -642 -315 -665 -315
-3 0 -7 13 -8 29 -1 15 -11 53 -21 84 l-20 57 53 72 c28 40 71 98 95 128 46
60 146 256 156 307 14 69 -54 87 -377 99 -145 6 -168 9 -173 24 -3 9 -34 67
-69 128 -35 62 -61 112 -57 112 3 0 68 -20 144 -45z m5307 -130 c182 -24 403
-69 584 -119 87 -25 160 -47 163 -49 2 -3 -15 -14 -39 -26 -41 -19 -134 -107
-171 -161 -19 -28 -1 -32 -182 45 -205 88 -403 123 -594 105 -128 -12 -165
-21 -169 -42 -3 -14 24 -16 215 -20 193 -5 229 -8 313 -31 111 -29 339 -124
347 -143 10 -26 -36 -110 -242 -444 -62 -101 -120 -182 -175 -242 l-61 -68
-60 31 -61 30 25 32 c13 18 29 43 36 57 9 19 5 17 -18 -10 -17 -19 -33 -43
-36 -52 -8 -22 -16 -22 -62 -3 -79 33 -104 9 -39 -37 l46 -32 -27 -35 c-15
-20 -33 -40 -40 -44 -7 -4 -18 -18 -23 -30 -6 -12 15 6 47 41 l58 63 53 -33
52 -34 -37 -35 c-21 -19 -52 -47 -69 -62 -17 -15 -73 -46 -125 -69 l-94 -40
-203 4 -204 5 -38 42 c-25 27 -46 41 -57 39 -18 -4 -19 -12 -9 -58 4 -14 4
-19 0 -12 -3 6 -10 10 -15 6 -5 -3 -9 0 -9 5 0 6 -6 11 -13 11 -7 0 -48 21
-90 46 -82 48 -120 52 -148 18 -11 -13 -15 -9 -26 28 -41 135 -35 221 23 348
52 112 105 160 260 239 143 72 265 104 455 121 115 10 139 23 139 77 0 73 -51
86 -243 62 -49 -6 -91 -8 -94 -6 -3 3 2 59 11 124 8 65 20 168 27 230 l12 112
71 15 c39 9 85 18 101 20 55 8 308 -3 435 -19z m-1160 -157 c-1 -24 -7 -54
-15 -68 -14 -24 -14 -24 -15 20 0 53 9 90 21 90 5 0 9 -19 9 -42z m2254 -130
c55 -21 135 -56 179 -75 l79 -37 -7 -65 c-4 -36 -14 -79 -23 -96 -9 -18 -14
-50 -13 -82 3 -54 -15 -123 -140 -558 -80 -279 -118 -386 -190 -528 -123 -243
-348 -562 -550 -776 l-96 -102 -184 86 c-101 47 -187 89 -191 93 -4 4 54 68
129 142 417 413 652 777 772 1195 69 242 95 423 96 662 0 188 0 193 20 187 11
-3 65 -24 119 -46z m-7754 7 c73 -19 93 -28 168 -79 30 -20 71 -41 92 -47 28
-8 40 -19 45 -36 3 -14 28 -47 54 -73 37 -37 63 -53 107 -66 56 -16 61 -16
125 3 36 11 73 17 81 14 8 -3 47 -43 85 -88 73 -84 109 -118 179 -169 50 -35
234 -210 234 -221 0 -4 -91 -46 -203 -92 -310 -130 -583 -249 -679 -297 -48
-24 -89 -44 -91 -44 -2 0 -4 30 -5 68 0 48 -12 106 -42 207 -165 558 -264 921
-254 937 3 5 13 7 22 4 10 -3 46 -12 82 -21z m5452 -450 c-6 -36 -19 -40 -14
-4 2 16 8 29 12 29 4 0 5 -11 2 -25z m-4007 -205 c-3 -5 -11 -10 -16 -10 -6 0
-7 5 -4 10 3 6 11 10 16 10 6 0 7 -4 4 -10z m4007 -834 c25 -39 45 -72 43 -74
-6 -7 -154 60 -166 74 -10 13 -7 26 15 72 l28 56 16 -29 c10 -16 38 -60 64
-99z m-8239 -23 c4 -37 5 -68 3 -70 -2 -2 -33 9 -70 25 l-67 29 53 41 c29 22
58 41 64 41 6 1 14 -27 17 -66z m8765 -514 l66 -50 -69 3 -70 3 -3 48 c-2 26
0 47 3 47 3 0 36 -23 73 -51z"/>
<path d="M5780 10321 c-87 -27 -246 -135 -345 -235 -82 -83 -137 -159 -230
-314 -53 -90 -92 -140 -189 -240 -219 -229 -255 -293 -296 -530 -18 -108 -22
-119 -63 -171 -69 -88 -82 -121 -48 -121 26 0 137 114 151 154 6 18 19 82 29
142 35 203 73 270 275 482 103 108 147 162 191 238 94 161 152 238 241 324 89
85 275 214 325 225 37 8 47 25 24 42 -21 14 -28 15 -65 4z"/>
<path d="M5750 6246 c-69 -46 -151 -189 -181 -313 -7 -28 -13 -144 -14 -278
-2 -255 -4 -267 -78 -429 -70 -158 -77 -205 -53 -367 16 -101 24 -130 40 -141
6 -4 10 -40 10 -80 0 -92 -24 -142 -124 -259 -129 -152 -149 -215 -130 -415
11 -125 11 -135 -10 -220 -23 -91 -64 -167 -113 -213 -15 -13 -24 -28 -21 -32
10 -17 37 -9 88 28 28 20 45 29 37 20 -9 -11 -10 -17 -2 -17 6 0 11 -3 10 -7
-1 -5 2 -18 6 -30 9 -28 50 -31 99 -8 31 15 32 17 32 83 0 59 4 92 16 152 2 8
9 29 15 45 6 17 15 39 19 50 4 11 8 22 8 25 6 24 92 190 99 190 5 0 7 7 3 15
-3 8 -1 15 5 15 6 0 7 5 4 10 -3 6 -1 10 5 10 6 0 8 5 5 10 -3 6 -1 10 4 10 6
0 11 6 11 14 0 8 6 21 13 28 6 7 13 27 13 43 2 34 6 53 33 150 12 45 19 107
20 175 3 172 20 390 36 460 19 82 25 112 27 128 1 6 5 12 10 12 5 0 6 5 3 10
-3 6 -1 10 6 10 8 0 8 4 -1 15 -9 11 -9 15 -1 15 7 0 9 5 6 10 -3 6 -2 10 2
10 5 0 8 15 8 33 -1 17 2 42 6 55 5 12 5 22 0 22 -5 0 -7 14 -6 30 1 17 -1 33
-6 35 -4 3 -6 14 -4 25 2 11 0 20 -5 20 -6 0 -6 10 0 25 5 14 6 25 2 25 -4 0
-8 30 -10 68 -3 102 -3 102 -11 102 -4 0 -7 15 -7 32 1 29 -3 34 -29 39 l-30
6 35 5 35 5 -32 1 c-29 2 -33 5 -33 31 0 29 1 30 38 25 28 -4 33 -3 22 5 -13
9 -12 11 5 12 l20 0 -20 9 -20 9 20 0 c17 1 17 3 5 11 -12 8 -12 10 5 10 17 0
17 2 5 10 -13 9 -13 10 0 10 13 0 13 1 0 10 -12 8 -12 10 5 10 17 0 17 2 5 10
-13 9 -13 10 0 10 13 0 13 1 0 10 -12 8 -12 10 5 10 17 0 17 2 5 10 -12 8 -12
10 5 11 l20 0 -20 9 c-28 12 -57 12 -50 0 3 -5 0 -10 -7 -10 -9 0 -9 -3 2 -10
13 -9 13 -10 0 -10 -13 0 -13 -1 0 -10 12 -8 12 -10 -5 -10 -17 0 -17 -2 -5
-10 12 -8 12 -10 -5 -11 l-20 0 20 -9 c18 -8 18 -9 -5 -10 -23 -1 -23 -2 -5
-10 l20 -9 -20 0 c-17 -1 -17 -3 -5 -11 13 -8 12 -10 -3 -10 -16 0 -17 6 -11
53 14 113 79 266 151 354 19 24 31 47 28 53 -9 15 -16 13 -55 -14z m-103 -462
c-3 -3 -12 -4 -19 -1 -8 3 -5 6 6 6 11 1 17 -2 13 -5z m-74 -1186 c-4 -7 -6
-21 -5 -30 2 -10 -1 -18 -7 -18 -5 0 -8 -9 -6 -20 2 -11 -1 -20 -6 -20 -6 0
-8 -4 -4 -9 3 -5 0 -13 -6 -17 -8 -5 -8 -8 1 -14 8 -5 7 -12 -5 -24 -12 -12
-13 -16 -3 -16 9 0 9 -3 2 -8 -6 -4 -10 -15 -8 -24 1 -10 -4 -18 -12 -18 -8 0
-13 -3 -12 -7 3 -17 -15 -43 -29 -43 -10 0 -13 -6 -9 -16 3 -8 2 -12 -3 -9
-11 6 -61 -55 -61 -73 0 -7 -4 -12 -8 -12 -4 0 -17 -24 -27 -52 -10 -29 -24
-64 -31 -77 -7 -14 -11 -28 -8 -33 3 -4 0 -8 -5 -8 -6 0 -11 -11 -11 -24 0
-48 -18 -35 -24 17 -8 62 14 154 46 201 12 17 53 66 91 110 72 81 113 154 123
219 4 22 12 37 21 37 9 0 11 -5 6 -12z"/>
<path d="M5720 6010 c8 -5 20 -10 25 -10 6 0 3 5 -5 10 -8 5 -19 10 -25 10 -5
0 -3 -5 5 -10z"/>
<path d="M5700 5996 c0 -2 15 -9 33 -15 29 -10 30 -9 13 4 -18 14 -46 20 -46
11z"/>
<path d="M5700 5970 c12 -8 12 -10 -5 -11 l-20 0 20 -9 c11 -5 27 -9 35 -9 13
-1 13 0 0 9 -13 9 -13 10 0 10 13 0 13 1 0 10 -8 5 -22 10 -30 10 -13 0 -13
-1 0 -10z"/>
<path d="M5648 5743 c6 -2 18 -2 25 0 6 3 1 5 -13 5 -14 0 -19 -2 -12 -5z"/>
<path d="M5643 5723 c9 -2 23 -2 30 0 6 3 -1 5 -18 5 -16 0 -22 -2 -12 -5z"/>
<path d="M6623 4663 c9 -2 23 -2 30 0 6 3 -1 5 -18 5 -16 0 -22 -2 -12 -5z"/>
<path d="M6623 4643 c9 -2 23 -2 30 0 6 3 -1 5 -18 5 -16 0 -22 -2 -12 -5z"/>
<path d="M7252 3530 c0 -14 2 -19 5 -12 2 6 2 18 0 25 -3 6 -5 1 -5 -13z"/>
<path d="M8252 5364 c-16 -11 -22 -25 -22 -54 0 -51 47 -100 125 -129 54 -21
298 -73 495 -106 139 -24 487 -25 648 -2 396 57 522 102 522 188 0 33 -31 69
-58 69 -10 0 -37 -9 -59 -20 -63 -30 -173 -57 -338 -82 -130 -20 -187 -23
-425 -23 -297 1 -347 6 -585 66 -145 35 -169 44 -219 81 -46 32 -54 34 -84 12z"/>
<path d="M8590 4899 c-30 -5 -64 -16 -75 -23 -12 -8 -66 -26 -121 -40 -142
-38 -148 -44 -152 -147 -4 -104 6 -151 66 -310 59 -154 105 -236 173 -313 71
-78 165 -156 191 -156 11 0 59 -22 107 -49 47 -27 131 -68 185 -91 l99 -42
106 4 c189 8 333 73 476 213 165 162 261 324 290 491 10 55 24 111 31 126 33
65 4 103 -116 152 -47 19 -112 46 -146 60 -90 38 -275 82 -394 95 -58 6 -197
16 -310 21 -113 5 -239 11 -280 14 -41 2 -100 0 -130 -5z"/>
</g>
</svg>
