<?xml version="1.0" standalone="no"?>
<!DOCTYPE svg PUBLIC "-//W3C//DTD SVG 20010904//EN"
 "http://www.w3.org/TR/2001/REC-SVG-20010904/DTD/svg10.dtd">
<svg version="1.0" xmlns="http://www.w3.org/2000/svg"
 width="700.000000pt" height="700.000000pt" viewBox="0 0 700.000000 700.000000"
 preserveAspectRatio="xMidYMid meet">
<metadata>
Created by potrace 1.14, written by Peter Selinger 2001-2017
</metadata>
<g transform="translate(0.000000,700.000000) scale(0.100000,-0.100000)"
fill="#000000" stroke="none">
<path d="M450 6984 c-214 -45 -390 -224 -435 -439 -22 -106 -22 -5984 0 -6090
45 -217 223 -395 440 -440 106 -22 5984 -22 6090 0 217 45 395 223 440 440 22
106 22 5984 0 6090 -46 218 -222 394 -440 440 -102 21 -5995 21 -6095 -1z
m5261 -1933 c38 -38 38 -80 2 -152 -16 -30 -255 -448 -533 -929 -551 -954
-552 -955 -675 -1016 l-60 -29 -760 -5 -760 -5 -49 -23 c-67 -30 -139 -87
-174 -136 -16 -23 -179 -300 -362 -616 -183 -316 -346 -590 -364 -608 -40 -44
-72 -56 -105 -42 -20 8 -94 125 -306 482 -154 259 -285 485 -292 502 -17 46
-15 144 5 201 19 54 1255 2197 1301 2255 39 49 117 107 176 130 49 18 89 19
1488 19 l1439 1 29 -29z"/>
<path d="M3993 4845 c-44 -22 -88 -54 -119 -87 -66 -71 -874 -1462 -881 -1519
-12 -84 23 -119 120 -119 77 0 179 52 244 124 32 36 187 295 462 771 357 618
415 723 419 765 4 42 1 52 -21 74 -23 23 -35 26 -90 26 -53 0 -76 -6 -134 -35z"/>
</g>
</svg>
