<svg viewBox="0 0 900 600" width="900" height="600" xmlns="http://www.w3.org/2000/svg" xmlns:xlink="http://www.w3.org/1999/xlink" version="1.1"><rect x="0" y="0" width="900" height="600" fill="#826FA0"></rect><defs><linearGradient id="grad1_0" x1="33.3%" y1="0%" x2="100%" y2="100%"><stop offset="20%" stop-color="#a798be" stop-opacity="1"></stop><stop offset="80%" stop-color="#a798be" stop-opacity="1"></stop></linearGradient></defs><defs><linearGradient id="grad1_1" x1="33.3%" y1="0%" x2="100%" y2="100%"><stop offset="20%" stop-color="#a798be" stop-opacity="1"></stop><stop offset="80%" stop-color="#a090b8" stop-opacity="1"></stop></linearGradient></defs><defs><linearGradient id="grad1_2" x1="33.3%" y1="0%" x2="100%" y2="100%"><stop offset="20%" stop-color="#9887b2" stop-opacity="1"></stop><stop offset="80%" stop-color="#a090b8" stop-opacity="1"></stop></linearGradient></defs><defs><linearGradient id="grad1_3" x1="33.3%" y1="0%" x2="100%" y2="100%"><stop offset="20%" stop-color="#9887b2" stop-opacity="1"></stop><stop offset="80%" stop-color="#917fac" stop-opacity="1"></stop></linearGradient></defs><defs><linearGradient id="grad1_4" x1="33.3%" y1="0%" x2="100%" y2="100%"><stop offset="20%" stop-color="#8977a6" stop-opacity="1"></stop><stop offset="80%" stop-color="#917fac" stop-opacity="1"></stop></linearGradient></defs><defs><linearGradient id="grad1_5" x1="33.3%" y1="0%" x2="100%" y2="100%"><stop offset="20%" stop-color="#8977a6" stop-opacity="1"></stop><stop offset="80%" stop-color="#826fa0" stop-opacity="1"></stop></linearGradient></defs><defs><linearGradient id="grad2_0" x1="0%" y1="0%" x2="66.7%" y2="100%"><stop offset="20%" stop-color="#a798be" stop-opacity="1"></stop><stop offset="80%" stop-color="#a798be" stop-opacity="1"></stop></linearGradient></defs><defs><linearGradient id="grad2_1" x1="0%" y1="0%" x2="66.7%" y2="100%"><stop offset="20%" stop-color="#a090b8" stop-opacity="1"></stop><stop offset="80%" stop-color="#a798be" stop-opacity="1"></stop></linearGradient></defs><defs><linearGradient id="grad2_2" x1="0%" y1="0%" x2="66.7%" y2="100%"><stop offset="20%" stop-color="#a090b8" stop-opacity="1"></stop><stop offset="80%" stop-color="#9887b2" stop-opacity="1"></stop></linearGradient></defs><defs><linearGradient id="grad2_3" x1="0%" y1="0%" x2="66.7%" y2="100%"><stop offset="20%" stop-color="#917fac" stop-opacity="1"></stop><stop offset="80%" stop-color="#9887b2" stop-opacity="1"></stop></linearGradient></defs><defs><linearGradient id="grad2_4" x1="0%" y1="0%" x2="66.7%" y2="100%"><stop offset="20%" stop-color="#917fac" stop-opacity="1"></stop><stop offset="80%" stop-color="#8977a6" stop-opacity="1"></stop></linearGradient></defs><defs><linearGradient id="grad2_5" x1="0%" y1="0%" x2="66.7%" y2="100%"><stop offset="20%" stop-color="#826fa0" stop-opacity="1"></stop><stop offset="80%" stop-color="#8977a6" stop-opacity="1"></stop></linearGradient></defs><g transform="translate(900, 0)"><path d="M0 486.7C-42.1 475.1 -84.1 463.4 -118 440.5C-151.9 417.5 -177.6 383.3 -210 363.7C-242.4 344.2 -281.4 339.3 -323.9 323.9C-366.3 308.4 -412.2 282.4 -421.5 243.4C-430.9 204.3 -403.8 152.2 -408.6 109.5C-413.4 66.7 -450.1 33.4 -486.7 0L0 0Z" fill="#8673a3"></path><path d="M0 405.6C-35.1 395.9 -70.1 386.2 -98.4 367.1C-126.6 347.9 -148 319.4 -175 303.1C-202 286.8 -234.5 282.7 -269.9 269.9C-305.3 257 -343.5 235.4 -351.3 202.8C-359.1 170.3 -336.5 126.8 -340.5 91.2C-344.5 55.6 -375.1 27.8 -405.6 0L0 0Z" fill="#8d7ba9"></path><path d="M0 324.5C-28 316.7 -56.1 308.9 -78.7 293.6C-101.3 278.3 -118.4 255.5 -140 242.5C-161.6 229.5 -187.6 226.2 -215.9 215.9C-244.2 205.6 -274.8 188.3 -281 162.2C-287.3 136.2 -269.2 101.5 -272.4 73C-275.6 44.5 -300 22.2 -324.5 0L0 0Z" fill="#9483af"></path><path d="M0 243.4C-21 237.5 -42.1 231.7 -59 220.2C-76 208.8 -88.8 191.6 -105 181.9C-121.2 172.1 -140.7 169.6 -161.9 161.9C-183.2 154.2 -206.1 141.2 -210.8 121.7C-215.5 102.2 -201.9 76.1 -204.3 54.7C-206.7 33.4 -225 16.7 -243.4 0L0 0Z" fill="#9c8bb5"></path><path d="M0 162.2C-14 158.4 -28 154.5 -39.3 146.8C-50.6 139.2 -59.2 127.8 -70 121.2C-80.8 114.7 -93.8 113.1 -108 108C-122.1 102.8 -137.4 94.1 -140.5 81.1C-143.6 68.1 -134.6 50.7 -136.2 36.5C-137.8 22.2 -150 11.1 -162.2 0L0 0Z" fill="#a394bb"></path><path d="M0 81.1C-7 79.2 -14 77.2 -19.7 73.4C-25.3 69.6 -29.6 63.9 -35 60.6C-40.4 57.4 -46.9 56.5 -54 54C-61.1 51.4 -68.7 47.1 -70.3 40.6C-71.8 34.1 -67.3 25.4 -68.1 18.2C-68.9 11.1 -75 5.6 -81.1 0L0 0Z" fill="#a798be"></path></g><g transform="translate(0, 600)"><path d="M0 -486.7C46.2 -490 92.3 -493.2 126 -470.2C159.6 -447.2 180.7 -397.9 215.5 -373.3C250.3 -348.6 298.7 -348.4 323.9 -323.9C349 -299.3 351 -250.3 370.7 -214C390.4 -177.7 427.8 -154.2 450.1 -120.6C472.4 -87.1 479.6 -43.5 486.7 0L0 0Z" fill="#8673a3"></path><path d="M0 -405.6C38.5 -408.3 76.9 -411 105 -391.8C133 -372.6 150.6 -331.6 179.6 -311C208.6 -290.5 248.9 -290.4 269.9 -269.9C290.9 -249.4 292.5 -208.6 308.9 -178.3C325.3 -148.1 356.5 -128.5 375.1 -100.5C393.7 -72.6 399.7 -36.3 405.6 0L0 0Z" fill="#8d7ba9"></path><path d="M0 -324.5C30.8 -326.6 61.6 -328.8 84 -313.4C106.4 -298.1 120.5 -265.3 143.7 -248.8C166.8 -232.4 199.1 -232.3 215.9 -215.9C232.7 -199.5 234 -166.9 247.1 -142.7C260.2 -118.5 285.2 -102.8 300.1 -80.4C315 -58 319.7 -29 324.5 0L0 0Z" fill="#9483af"></path><path d="M0 -243.4C23.1 -245 46.2 -246.6 63 -235.1C79.8 -223.6 90.4 -199 107.7 -186.6C125.1 -174.3 149.3 -174.2 161.9 -161.9C174.5 -149.6 175.5 -125.1 185.3 -107C195.2 -88.9 213.9 -77.1 225.1 -60.3C236.2 -43.5 239.8 -21.8 243.4 0L0 0Z" fill="#9c8bb5"></path><path d="M0 -162.2C15.4 -163.3 30.8 -164.4 42 -156.7C53.2 -149.1 60.2 -132.6 71.8 -124.4C83.4 -116.2 99.6 -116.1 108 -108C116.3 -99.8 117 -83.4 123.6 -71.3C130.1 -59.2 142.6 -51.4 150 -40.2C157.5 -29 159.9 -14.5 162.2 0L0 0Z" fill="#a394bb"></path><path d="M0 -81.1C7.7 -81.7 15.4 -82.2 21 -78.4C26.6 -74.5 30.1 -66.3 35.9 -62.2C41.7 -58.1 49.8 -58.1 54 -54C58.2 -49.9 58.5 -41.7 61.8 -35.7C65.1 -29.6 71.3 -25.7 75 -20.1C78.7 -14.5 79.9 -7.3 81.1 0L0 0Z" fill="#a798be"></path></g></svg>