<svg class="icon" viewBox="0 0 62 62" xmlns="http://www.w3.org/2000/svg"><path d="M31 62C48.1208 62 62 48.1208 62 31C62 13.8792 48.1208 0 31 0C13.8792 0 0 13.8792 0 31C0 48.1208 13.8792 62 31 62ZM36.6315 16C39.526 16.4857 42.2945 17.3387 44.8838 18.5125C49.4111 25.0629 51.6606 32.4508 50.83 40.972C47.3661 43.4813 44.0061 45.0037 40.7026 46C39.8846 44.9135 39.161 43.7553 38.5349 42.5411C39.7273 42.1021 40.8725 41.5604 41.9547 40.9284C41.6716 40.7229 41.3916 40.5081 41.1179 40.287C34.6148 43.2696 27.4637 43.2696 20.882 40.287C20.6114 40.5081 20.3314 40.7229 20.0451 40.9284C21.1242 41.5573 22.2663 42.099 23.4586 42.538C22.8326 43.7553 22.1058 44.9104 21.291 45.9969C17.9907 45.0007 14.6338 43.4782 11.1699 40.972C10.462 33.6215 11.8777 26.165 17.1003 18.5187C19.6896 17.3419 22.4613 16.4857 25.3589 16C25.7176 16.6227 26.1423 17.4602 26.4286 18.1264C29.4489 17.6781 32.4975 17.6781 35.5744 18.1264C35.8607 17.4602 36.276 16.6227 36.6315 16ZM20.7593 32.4882C20.7593 34.6644 22.3795 36.4515 24.3553 36.4515C26.3657 36.4515 27.9545 34.6644 27.9513 32.4882C27.9859 30.3088 26.3657 28.5218 24.3553 28.5218C22.3449 28.5218 20.7593 30.312 20.7593 32.4882ZM34.0485 32.4882C34.0485 34.6644 35.6688 36.4515 37.6446 36.4515C39.6549 36.4515 41.2406 34.6644 41.2406 32.4882C41.2752 30.3088 39.6549 28.5218 37.6446 28.5218C35.6342 28.5218 34.0485 30.312 34.0485 32.4882Z" /></svg>