<svg class="icon" viewBox="0 0 62 62" xmlns="http://www.w3.org/2000/svg"><path d="M31 1.37896e-06C13.8814 1.37896e-06 0 13.7707 0 30.7596C0 44.3495 8.88244 55.8795 21.1997 59.9468C22.749 60.2315 23.3178 59.2795 23.3178 58.4671C23.3178 57.7341 23.289 55.3105 23.2757 52.7403C14.6514 54.601 12.8316 49.111 12.8316 49.111C11.4215 45.5562 9.38963 44.6103 9.38963 44.6103C6.577 42.7012 9.60164 42.7404 9.60164 42.7404C12.7146 42.9574 14.3537 45.9107 14.3537 45.9107C17.1186 50.6126 21.6057 49.2531 23.3747 48.4672C23.6535 46.4796 24.4564 45.1222 25.3429 44.3541C18.4574 43.5768 11.2192 40.9388 11.2192 29.1525C11.2192 25.7948 12.4302 23.0503 14.4132 20.8962C14.0914 20.1215 13.0303 16.993 14.7141 12.7561C14.7141 12.7561 17.3173 11.9299 23.2408 15.9095C25.7136 15.228 28.3655 14.8862 31 14.874C33.6345 14.8862 36.2885 15.228 38.7659 15.9095C44.6828 11.9299 47.2823 12.7561 47.2823 12.7561C48.9697 16.993 47.9086 20.1215 47.5868 20.8962C49.5744 23.0503 50.7767 25.7948 50.7767 29.1525C50.7767 40.9673 43.5246 43.5681 36.6217 44.3296C37.7336 45.2842 38.7243 47.1561 38.7243 50.0259C38.7243 54.1415 38.6889 57.4539 38.6889 58.4671C38.6889 59.2861 39.2464 60.2448 40.8178 59.9432C53.1289 55.8713 62 44.3454 62 30.7596C62 13.7707 48.1206 1.37896e-06 31 1.37896e-06Z" /></svg>