<svg width="413" height="158" viewBox="0 0 413 158" fill="none" xmlns="http://www.w3.org/2000/svg"><path d="M23.2494 157.64H0.575025V35.6937H6.01687L15.0042 46.3301C17.038 44.4062 19.2642 42.5922 21.6828 40.8882C24.1014 39.1842 26.6024 37.7276 29.1859 36.5183C31.8244 35.254 34.5453 34.2646 37.3487 33.55C40.1521 32.8354 42.9829 32.4781 45.8413 32.4781C52.0527 32.4781 57.8793 33.6049 63.3211 35.8586C68.8179 38.0574 73.6002 41.1905 77.6678 45.2582C81.7904 49.3258 85.0335 54.2455 87.3972 60.0171C89.7608 65.7338 90.9426 72.0826 90.9426 79.0636C90.9426 86.3194 89.7608 92.8606 87.3972 98.6872C85.0335 104.459 81.7904 109.378 77.6678 113.446C73.6002 117.459 68.8179 120.537 63.3211 122.681C57.8793 124.825 52.0527 125.896 45.8413 125.896C43.8624 125.896 41.8836 125.677 39.9047 125.237C37.9808 124.797 36.0569 124.22 34.1331 123.505C32.2641 122.736 30.3952 121.884 28.5263 120.949C26.7124 120.015 24.9534 119.053 23.2494 118.063V157.64ZM68.3507 79.0636C68.3507 75.3257 67.7461 71.9727 66.5368 69.0044C65.3824 66.0361 63.7884 63.5351 61.7545 61.5013C59.7207 59.4125 57.3296 57.8184 54.5812 56.719C51.8328 55.6197 48.9195 55.07 45.8413 55.07C42.763 55.07 39.8497 55.6197 37.1013 56.719C34.4079 57.8184 32.0443 59.4125 30.0104 61.5013C27.9766 63.5351 26.3551 66.0361 25.1458 69.0044C23.9914 71.9727 23.4143 75.3257 23.4143 79.0636C23.4143 82.6365 23.9914 85.9071 25.1458 88.8754C26.3551 91.8437 27.9766 94.3722 30.0104 96.461C32.0443 98.5498 34.4079 100.171 37.1013 101.326C39.8497 102.48 42.763 103.057 45.8413 103.057C48.9195 103.057 51.8328 102.48 54.5812 101.326C57.3296 100.171 59.7207 98.5498 61.7545 96.461C63.7884 94.3722 65.3824 91.8437 66.5368 88.8754C67.7461 85.9071 68.3507 82.6365 68.3507 79.0636ZM188.978 124H183.536L174.796 111.88C172.653 113.803 170.372 115.617 167.953 117.321C165.589 118.97 163.088 120.427 160.45 121.691C157.811 122.901 155.09 123.863 152.287 124.577C149.539 125.292 146.735 125.649 143.877 125.649C137.665 125.649 131.811 124.605 126.315 122.516C120.873 120.427 116.091 117.404 111.968 113.446C107.9 109.433 104.685 104.541 102.321 98.7696C99.9574 92.998 98.7756 86.4293 98.7756 79.0636C98.7756 72.1926 99.9574 65.8987 102.321 60.182C104.685 54.4104 107.9 49.4632 111.968 45.3406C116.091 41.218 120.873 38.0299 126.315 35.7762C131.811 33.4675 137.665 32.3132 143.877 32.3132C146.735 32.3132 149.566 32.6705 152.369 33.3851C155.173 34.0997 157.894 35.0891 160.532 36.3534C163.171 37.6176 165.672 39.1018 168.035 40.8058C170.454 42.5098 172.708 44.3512 174.796 46.3301L183.536 35.8586H188.978V124ZM166.304 79.0636C166.304 75.9854 165.699 73.0171 164.49 70.1587C163.336 67.2454 161.742 64.6894 159.708 62.4907C157.674 60.237 155.283 58.4505 152.534 57.1313C149.841 55.7571 146.955 55.07 143.877 55.07C140.799 55.07 137.885 55.5922 135.137 56.6366C132.444 57.681 130.08 59.2201 128.046 61.2539C126.067 63.2877 124.501 65.8163 123.346 68.8395C122.192 71.8078 121.615 75.2158 121.615 79.0636C121.615 82.9113 122.192 86.3468 123.346 89.3701C124.501 92.3384 126.067 94.8394 128.046 96.8732C130.08 98.9071 132.444 100.446 135.137 101.491C137.885 102.535 140.799 103.057 143.877 103.057C146.955 103.057 149.841 102.398 152.534 101.078C155.283 99.7041 157.674 97.9176 159.708 95.7189C161.742 93.4652 163.336 90.9092 164.49 88.0509C165.699 85.1375 166.304 82.1418 166.304 79.0636ZM271.101 113.693C269.287 115.343 267.335 116.909 265.246 118.393C263.213 119.822 261.069 121.087 258.815 122.186C256.562 123.23 254.225 124.055 251.807 124.66C249.443 125.319 247.025 125.649 244.551 125.649C239.109 125.649 233.997 124.687 229.215 122.763C224.433 120.839 220.228 118.118 216.6 114.6C213.027 111.028 210.196 106.713 208.107 101.655C206.073 96.5434 205.056 90.8267 205.056 84.5054V35.6937H227.483V84.5054C227.483 87.4737 227.923 90.1396 228.803 92.5033C229.737 94.8119 230.974 96.7633 232.513 98.3574C234.052 99.9515 235.839 101.161 237.872 101.985C239.961 102.81 242.187 103.222 244.551 103.222C246.86 103.222 249.031 102.7 251.065 101.655C253.153 100.556 254.967 99.1269 256.507 97.368C258.046 95.609 259.255 93.6301 260.134 91.4314C261.014 89.1777 261.454 86.869 261.454 84.5054V35.6937H283.963V124H278.521L271.101 113.693ZM336.32 102.398C337.2 102.672 338.079 102.865 338.959 102.975C339.838 103.03 340.718 103.057 341.597 103.057C343.796 103.057 345.912 102.755 347.946 102.15C349.98 101.546 351.876 100.694 353.635 99.5942C355.449 98.4398 357.043 97.0656 358.417 95.4716C359.847 93.8225 361.001 92.0086 361.88 90.0297L378.371 106.603C376.282 109.571 373.863 112.237 371.115 114.6C368.422 116.964 365.481 118.97 362.293 120.619C359.16 122.269 355.834 123.505 352.316 124.33C348.853 125.209 345.28 125.649 341.597 125.649C335.386 125.649 329.532 124.495 324.035 122.186C318.593 119.877 313.811 116.662 309.688 112.539C305.621 108.417 302.405 103.524 300.041 97.8627C297.678 92.146 296.496 85.8796 296.496 79.0636C296.496 72.0826 297.678 65.7063 300.041 59.9347C302.405 54.163 305.621 49.2434 309.688 45.1757C313.811 41.1081 318.593 37.9474 324.035 35.6937C329.532 33.44 335.386 32.3132 341.597 32.3132C345.28 32.3132 348.88 32.7529 352.398 33.6324C355.916 34.5119 359.242 35.7762 362.375 37.4252C365.563 39.0743 368.532 41.1081 371.28 43.5267C374.028 45.8903 376.447 48.5563 378.536 51.5245L336.32 102.398ZM347.864 55.977C346.819 55.5922 345.775 55.3448 344.73 55.2349C343.741 55.125 342.697 55.07 341.597 55.07C338.519 55.07 335.606 55.6472 332.857 56.8015C330.164 57.9008 327.8 59.4949 325.766 61.5837C323.788 63.6725 322.221 66.201 321.067 69.1693C319.912 72.0826 319.335 75.3807 319.335 79.0636C319.335 79.8881 319.363 80.8226 319.418 81.8669C319.527 82.9113 319.665 83.9832 319.83 85.0826C320.05 86.127 320.297 87.1439 320.572 88.1333C320.847 89.1227 321.204 90.0022 321.644 90.7718L347.864 55.977ZM412.588 124H389.914V0.569112H412.588V124Z" fill="white"/></svg>
