<svg class="icon" viewBox="0 0 62 62" xmlns="http://www.w3.org/2000/svg"><path d="M0 30.8155C0 47.7917 14.0238 61.8155 31 61.8155C47.9762 61.8155 62 47.7917 62 30.8155C62 13.8393 47.9762 0 31 0C14.0238 0 0 13.8393 0 30.8155ZM42.4405 45.2083C35.244 40.7798 26.0179 39.6726 15.3155 42.0714C12.7321 42.4405 12.3631 38.75 14.5774 38.381C26.3869 35.6131 36.3512 36.9048 44.4702 41.8869C46.5 43.1786 44.4702 46.3155 42.4405 45.2083ZM45.5774 36.9048C37.2738 31.7381 24.5417 30.2619 14.7619 33.2143C11.625 34.1369 10.5179 29.3393 13.4702 28.6012C24.7262 25.2798 38.5655 26.9405 48.1607 32.8452C50.744 34.506 48.1607 38.5655 45.5774 36.9048ZM13.2857 23.8036C10.1488 24.9107 8.11905 19.5595 11.625 18.2679C22.5119 14.9464 40.9643 15.5 52.4048 22.3274C55.5417 23.9881 52.5893 29.1548 49.2679 27.3095C39.3036 21.4048 22.6964 20.8512 13.2857 23.8036Z" /></svg>