<svg width="64" height="64" viewBox="0 0 64 64" fill="none" xmlns="http://www.w3.org/2000/svg">
<path d="M31.5926 64C49.0167 64 63.1419 49.6731 63.1419 32C63.1419 14.3269 49.0167 0 31.5926 0C14.1685 0 0.0433044 14.3269 0.0433044 32C0.0433044 49.6731 14.1685 64 31.5926 64ZM37.3239 16.5161C40.2696 17.0175 43.0873 17.8981 45.7224 19.1097C50.3299 25.8714 52.6193 33.4976 51.774 42.2937C48.2487 44.8839 44.8291 46.4554 41.4672 47.4839C40.6346 46.3623 39.8982 45.1667 39.261 43.9134C40.4745 43.4602 41.64 42.901 42.7414 42.2487C42.4533 42.0366 42.1684 41.8149 41.8898 41.5866C35.2714 44.6654 27.9936 44.6654 21.2953 41.5866C21.0199 41.8149 20.7349 42.0366 20.4436 42.2487C21.5418 42.8978 22.7042 43.457 23.9175 43.9102C23.2805 45.1667 22.5408 46.3591 21.7115 47.4807C18.3528 46.4523 14.9364 44.8807 11.4111 42.2937C10.6906 34.7061 12.1315 27.009 17.4466 19.1161C20.0818 17.9013 22.9026 17.0175 25.8515 16.5161C26.2166 17.1589 26.6488 18.0234 26.9402 18.7111C30.014 18.2483 33.1166 18.2483 36.2481 18.7111C36.5394 18.0234 36.9621 17.1589 37.3239 16.5161ZM21.1704 33.5362C21.1704 35.7826 22.8194 37.6273 24.8301 37.6273C26.8761 37.6273 28.4931 35.7826 28.4898 33.5362C28.5251 31.2865 26.8761 29.4418 24.8301 29.4418C22.7841 29.4418 21.1704 31.2898 21.1704 33.5362ZM34.6951 33.5362C34.6951 35.7826 36.3441 37.6273 38.355 37.6273C40.4009 37.6273 42.0147 35.7826 42.0147 33.5362C42.0498 31.2865 40.4009 29.4418 38.355 29.4418C36.3089 29.4418 34.6951 31.2898 34.6951 33.5362Z" fill="white"/>
</svg>
