<svg width="65" height="64" viewBox="0 0 65 64" fill="none" xmlns="http://www.w3.org/2000/svg">
<g clip-path="url(#clip0_118_20)">
<path d="M64.7429 32C64.7429 49.68 50.4229 64 32.7429 64C15.0629 64 0.742859 49.68 0.742859 32C0.742859 14.32 15.0629 0 32.7429 0C50.4229 0 64.7429 14.32 64.7429 32Z" fill="white"/>
<path d="M36.0443 28.9732L47.9571 15H45.1341L34.7903 27.1328L26.5287 15H17L29.4931 33.3469L17 48H19.8231L30.7464 35.1874L39.4713 48H49L36.0437 28.9732H36.0443ZM32.1777 33.5085L30.9119 31.6816L20.8403 17.1445H25.1764L33.3043 28.8764L34.5701 30.7033L45.1355 45.9531H40.7994L32.1777 33.5092V33.5085Z" fill="black"/>
</g>
<defs>
<clipPath id="clip0_118_20">
<rect width="64" height="64" fill="white" transform="translate(0.742859)"/>
</clipPath>
</defs>
</svg>
