<?xml version="1.0" standalone="no"?>
<!DOCTYPE svg PUBLIC "-//W3C//DTD SVG 20010904//EN"
 "http://www.w3.org/TR/2001/REC-SVG-20010904/DTD/svg10.dtd">
<svg version="1.0" xmlns="http://www.w3.org/2000/svg"
 width="700.000000pt" height="700.000000pt" viewBox="0 0 700.000000 700.000000"
 preserveAspectRatio="xMidYMid meet">
<metadata>
Created by potrace 1.14, written by Peter Selinger 2001-2017
</metadata>
<g transform="translate(0.000000,700.000000) scale(0.100000,-0.100000)"
fill="#000000" stroke="none">
<path d="M669 6996 c-2 -2 -20 -7 -39 -10 -102 -16 -225 -69 -314 -136 -137
-101 -234 -239 -288 -410 l-23 -75 0 -2870 0 -2870 27 -80 c74 -215 215 -377
406 -467 45 -22 90 -41 100 -43 142 -35 57 -34 2962 -34 3044 -1 2852 -4 3005
50 63 23 198 107 252 157 95 91 180 231 220 367 17 57 18 212 20 2910 2 2787
1 2852 -17 2925 -63 245 -249 455 -475 538 -148 54 56 51 -3001 52 -1557 0
-2832 -2 -2835 -4z m3335 -906 c14 -85 19 -112 41 -240 33 -183 31 -172 66
-375 17 -99 33 -189 34 -200 2 -11 6 -33 9 -50 4 -16 15 -82 26 -145 11 -63
21 -126 24 -140 3 -14 7 -41 10 -60 3 -19 8 -44 10 -56 2 -11 18 -101 35 -200
17 -98 33 -190 36 -204 3 -14 8 -40 11 -57 5 -25 12 -33 28 -34 11 0 28 -2 36
-4 8 -1 35 -6 60 -9 25 -4 52 -9 60 -11 8 -2 31 -7 50 -10 19 -3 58 -10 85
-15 28 -5 66 -12 85 -15 19 -3 71 -12 115 -20 44 -7 96 -16 115 -19 19 -3 46
-8 60 -11 27 -5 346 -61 395 -69 17 -3 46 -8 65 -11 19 -3 42 -8 50 -10 8 -2
33 -6 55 -10 33 -4 187 -31 295 -50 14 -3 97 -17 185 -31 88 -15 165 -32 170
-38 6 -6 6 -8 2 -5 -4 4 -29 2 -55 -3 -26 -5 -63 -11 -82 -14 -19 -3 -42 -7
-50 -9 -8 -3 -33 -7 -55 -10 -22 -4 -50 -8 -62 -11 -31 -6 -71 -13 -113 -20
-19 -3 -44 -8 -55 -10 -33 -5 -310 -53 -465 -80 -80 -14 -158 -27 -175 -30
-16 -2 -52 -9 -80 -14 -42 -9 -307 -55 -425 -75 -28 -4 -72 -12 -110 -20 -3
-1 -44 -7 -92 -15 -94 -14 -92 -12 -103 -93 -1 -12 -12 -78 -24 -147 -12 -69
-24 -138 -27 -155 -3 -16 -7 -37 -9 -45 -2 -8 -7 -35 -11 -60 -10 -71 -12 -80
-28 -165 -8 -44 -17 -96 -20 -115 -4 -19 -8 -46 -11 -60 -3 -14 -7 -41 -10
-60 -14 -84 -87 -502 -100 -575 -8 -44 -17 -96 -21 -115 -16 -98 -62 -344 -63
-335 -1 9 -57 334 -65 380 -2 11 -7 36 -10 55 -7 40 -62 360 -70 405 -23 135
-58 335 -62 355 -2 14 -6 39 -9 55 -3 17 -10 53 -15 80 -5 28 -12 66 -15 85
-3 19 -12 71 -20 115 -7 44 -16 96 -19 115 -3 19 -8 46 -11 60 -6 27 -8 42
-25 141 l-11 66 -102 17 c-56 9 -165 28 -242 42 -77 13 -151 26 -165 29 -37 6
-62 10 -345 59 -143 25 -278 48 -300 51 -22 4 -47 8 -55 10 -8 3 -33 7 -55 10
-22 4 -47 8 -55 10 -8 3 -33 7 -55 11 -22 3 -112 18 -200 34 -88 16 -195 34
-237 41 -43 7 -78 16 -78 19 0 4 346 67 635 115 17 3 41 8 55 10 46 9 67 13
106 20 76 12 100 16 209 35 220 39 451 80 489 86 21 3 48 8 60 10 11 2 92 16
178 31 l157 26 10 66 c7 36 18 102 26 146 25 136 54 299 58 330 3 17 10 57 16
90 6 33 13 76 16 95 3 19 8 42 10 50 2 8 7 33 10 55 3 23 7 52 10 65 3 13 7
40 10 60 3 20 8 47 10 60 6 28 12 64 20 113 4 17 19 106 35 197 28 162 33 190
45 260 3 19 8 42 10 50 2 8 7 33 10 55 3 23 7 52 10 65 5 24 6 34 21 115 l7
40 13 -60 c7 -33 15 -76 18 -95z"/>
</g>
</svg>
