<svg width="474" height="146" viewBox="0 0 474 146" fill="none" xmlns="http://www.w3.org/2000/svg">
<path d="M45.9727 41.3638C44.3967 41.3638 42.7427 41.9153 41.0097 43.0183C39.2757 44.1213 37.9367 45.4607 36.9907 47.0365L1.41821 108.728C0.472805 110.304 0 112.076 0 114.045C0 115.385 0.236399 116.488 0.709099 117.354L16.4277 143.945C16.8217 144.733 17.4127 145.128 18.1997 145.128C19.4607 145.128 20.6817 144.104 21.8637 142.055L40.6547 109.437C41.5997 107.861 42.9397 106.521 44.6727 105.418C46.4067 104.315 48.0607 103.763 49.6367 103.763H89.3457C90.9217 103.763 92.5757 103.213 94.3097 102.11C96.0427 101.007 97.3817 99.6665 98.3277 98.0915L127.755 47.0365C128.386 46.0122 128.701 45.0668 128.701 44.2001C128.701 42.3092 127.598 41.3638 125.392 41.3638H45.9727ZM61.8097 92.4185C60.9427 93.9945 59.6427 95.3335 57.9097 96.4365C56.1757 97.5395 54.5217 98.0915 52.9457 98.0915C50.7397 98.0915 49.6367 97.1455 49.6367 95.2545C49.6367 94.3885 49.9127 93.4425 50.4637 92.4185L73.3907 52.7095C74.3367 51.1335 75.6757 49.7945 77.4097 48.6915C79.1427 47.5885 80.7977 47.0365 82.3727 47.0365C84.5787 47.0365 85.6817 47.9815 85.6817 49.8725C85.6817 50.7395 85.3667 51.6845 84.7367 52.7095L61.8097 92.4185ZM144.934 41.3638C143.358 41.3638 141.664 41.9153 139.852 43.0183C138.119 44.1213 136.819 45.4607 135.952 47.0365L129.334 58.3815C128.783 59.4065 128.507 60.3515 128.507 61.2185C128.507 63.1095 129.61 64.0545 131.816 64.0545H160.18C161.677 64.0545 163.292 63.5035 165.025 62.4005C166.837 61.2975 168.177 59.9575 169.043 58.3815L172.352 52.7095C173.298 51.1335 174.637 49.7945 176.371 48.6915C178.104 47.5885 179.758 47.0365 181.334 47.0365C183.462 47.0365 184.525 47.9815 184.525 49.8725C184.525 50.7395 184.249 51.6845 183.698 52.7095L177.198 64.0545C176.252 65.6305 174.913 66.9695 173.18 68.0725C171.446 69.1755 169.792 69.7275 168.216 69.7275H128.507C126.931 69.7275 125.276 70.2785 123.543 71.3825C121.81 72.4855 120.47 73.8245 119.525 75.4005L106.407 98.0915C105.855 99.1155 105.579 100.06 105.579 100.927C105.579 102.818 106.682 103.763 108.889 103.763H188.307C189.804 103.763 191.419 103.213 193.152 102.11C194.965 101.007 196.304 99.6665 197.171 98.0915L226.716 47.0365C227.268 46.0122 227.543 45.0668 227.543 44.2001C227.543 42.3092 226.48 41.3638 224.353 41.3638H144.934ZM160.771 92.4185C159.904 93.9945 158.564 95.3335 156.752 96.4365C155.019 97.5395 153.364 98.0915 151.789 98.0915C149.661 98.0915 148.598 97.1455 148.598 95.2545C148.598 94.3885 148.874 93.4425 149.425 92.4185L156.043 81.0725C156.91 79.4975 158.21 78.1575 159.943 77.0545C161.677 75.9515 163.331 75.4005 164.907 75.4005C167.113 75.4005 168.216 76.3455 168.216 78.2365C168.216 79.1035 167.94 80.0485 167.389 81.0725L160.771 92.4185ZM292.921 41.3638C291.345 41.3638 289.652 41.9153 287.839 43.0183C286.106 44.1213 284.806 45.4607 283.939 47.0365L257.703 92.4185C256.836 93.9945 255.497 95.3335 253.685 96.4365C251.951 97.5395 250.297 98.0915 248.721 98.0915C246.594 98.0915 245.53 97.1455 245.53 95.2545C245.53 94.3885 245.806 93.4425 246.357 92.4185L272.594 47.0365C273.145 46.0122 273.421 45.0668 273.421 44.2001C273.421 42.3092 272.358 41.3638 270.23 41.3638H241.867C240.291 41.3638 238.597 41.9153 236.785 43.0183C235.051 44.1213 233.751 45.4607 232.885 47.0365L203.339 98.0915C202.788 99.1155 202.512 100.06 202.512 100.927C202.512 102.818 203.615 103.763 205.821 103.763H285.239C286.736 103.763 288.352 103.213 290.085 102.11C291.897 101.007 293.236 99.6665 294.103 98.0915L323.649 47.0365C324.2 46.0122 324.476 45.0668 324.476 44.2001C324.476 42.3092 323.412 41.3638 321.285 41.3638H292.921ZM357.964 75.4005H397.673C399.249 75.4005 400.903 74.8485 402.637 73.7455C404.449 72.6425 405.788 71.3035 406.655 69.7275L419.773 47.0365C420.325 46.0122 420.6 45.0668 420.6 44.2001C420.6 42.3092 419.537 41.3638 417.41 41.3638H337.991C336.415 41.3638 334.721 41.9153 332.909 43.0183C331.176 44.1213 329.876 45.4607 329.009 47.0365L299.464 98.0915C298.912 99.1155 298.636 100.06 298.636 100.927C298.636 102.818 299.739 103.763 301.946 103.763H381.364C382.861 103.763 384.476 103.213 386.209 102.11C388.022 101.007 389.361 99.6665 390.228 98.0915L396.846 86.7455C397.397 85.7215 397.673 84.7755 397.673 83.9095C397.673 82.0185 396.609 81.0725 394.482 81.0725H366.118C364.543 81.0725 362.849 81.6245 361.037 82.7275C359.303 83.8305 358.003 85.1695 357.137 86.7455L353.828 92.4185C352.961 93.9945 351.621 95.3335 349.809 96.4365C348.076 97.5395 346.421 98.0915 344.846 98.0915C342.718 98.0915 341.655 97.1455 341.655 95.2545C341.655 94.3885 341.931 93.4425 342.482 92.4185L349.1 81.0725C349.967 79.4975 351.267 78.1575 353 77.0545C354.734 75.9515 356.388 75.4005 357.964 75.4005ZM365.409 52.7095C366.355 51.1335 367.694 49.7945 369.428 48.6915C371.161 47.5885 372.815 47.0365 374.391 47.0365C376.518 47.0365 377.582 47.9815 377.582 49.8725C377.582 50.7395 377.306 51.6845 376.755 52.7095L370.255 64.0545C369.309 65.6305 367.97 66.9695 366.237 68.0725C364.503 69.1755 362.849 69.7275 361.273 69.7275C359.067 69.7275 357.964 68.7825 357.964 66.8915C357.964 66.0245 358.279 65.0785 358.909 64.0545L365.409 52.7095ZM457.406 1.0636C456.933 0.354499 456.342 0 455.633 0C454.373 0 453.151 1.0242 451.969 3.0727L433.06 35.691L397.015 98.0915C396.463 99.1155 396.188 100.06 396.188 100.927C396.188 102.818 397.291 103.763 399.497 103.763H427.86C429.357 103.763 430.972 103.213 432.706 102.11C434.518 101.007 435.857 99.6665 436.724 98.0915L472.415 36.4001C473.36 34.7455 473.833 32.9334 473.833 30.9637C473.833 29.6243 473.597 28.5607 473.124 27.7728L457.406 1.0636Z" fill="white"/>
</svg>
