<svg width="96" height="34" viewBox="0 0 96 34" fill="none" xmlns="http://www.w3.org/2000/svg">
<path d="M1.62885 14.0489C1.16542 14.0489 0.778084 13.8925 0.46685 13.5798C0.155617 13.2671 0 12.8797 0 12.4174V6.70325C0 6.22245 0.163667 5.81838 0.491 5.49105C0.818367 5.16368 1.22245 5 1.70325 5H7.4174C7.87967 5 8.26715 5.15853 8.57985 5.4756C8.89255 5.7927 9.0489 6.18295 9.0489 6.64635C9.0489 7.10978 8.89255 7.49708 8.57985 7.80825C8.26715 8.11942 7.87967 8.275 7.4174 8.275H3.275V12.4174C3.275 12.8797 3.11725 13.2671 2.80175 13.5798C2.48622 13.8925 2.09525 14.0489 1.62885 14.0489ZM93.9037 14.0489C93.4402 14.0489 93.0529 13.8925 92.7418 13.5798C92.4306 13.2671 92.275 12.8797 92.275 12.4174V8.275H88.1326C87.6703 8.275 87.2829 8.11725 86.9702 7.80175C86.6575 7.48622 86.5011 7.09525 86.5011 6.62885C86.5011 6.16542 86.6575 5.77808 86.9702 5.46685C87.2829 5.15562 87.6703 5 88.1326 5H93.8468C94.3276 5 94.7316 5.16368 95.059 5.49105C95.3863 5.81838 95.55 6.22245 95.55 6.70325V12.4174C95.55 12.8797 95.3915 13.2671 95.0744 13.5798C94.7573 13.8925 94.3671 14.0489 93.9037 14.0489ZM1.70325 33.55C1.22245 33.55 0.818383 33.3863 0.49105 33.059C0.163683 32.7317 0 32.3276 0 31.8468V26.1326C0 25.6703 0.158534 25.2828 0.4756 24.9701C0.7927 24.6574 1.18295 24.5011 1.64635 24.5011C2.10978 24.5011 2.49708 24.6574 2.80825 24.9701C3.11942 25.2828 3.275 25.6703 3.275 26.1326V30.275H7.4174C7.87967 30.275 8.26715 30.4328 8.57985 30.7483C8.89255 31.0638 9.0489 31.4548 9.0489 31.9212C9.0489 32.3847 8.89255 32.772 8.57985 33.083C8.26715 33.3943 7.87967 33.55 7.4174 33.55H1.70325ZM88.1326 33.55C87.6703 33.55 87.2829 33.3915 86.9702 33.0745C86.6575 32.7575 86.5011 32.3672 86.5011 31.9037C86.5011 31.4402 86.6575 31.0529 86.9702 30.7418C87.2829 30.4306 87.6703 30.275 88.1326 30.275H92.275V26.1326C92.275 25.6703 92.4328 25.2828 92.7483 24.9701C93.0638 24.6574 93.4548 24.5011 93.9212 24.5011C94.3846 24.5011 94.7719 24.6574 95.0832 24.9701C95.3944 25.2828 95.55 25.6703 95.55 26.1326V31.8468C95.55 32.3276 95.3863 32.7317 95.059 33.059C94.7316 33.3863 94.3276 33.55 93.8468 33.55H88.1326Z" fill="white"/>
</svg>
