<svg width="71" height="70" viewBox="0 0 71 70" fill="none" xmlns="http://www.w3.org/2000/svg">
<path d="M35.3333 70C54.6632 70 70.3333 54.3299 70.3333 35C70.3333 15.6701 54.6632 0 35.3333 0C16.0034 0 0.333313 15.6701 0.333313 35C0.333313 54.3299 16.0034 70 35.3333 70ZM41.6915 18.0645C44.9594 18.6129 48.0852 19.576 51.0086 20.9012C56.12 28.2968 58.6598 36.638 57.722 46.2587C53.8112 49.0918 50.0176 50.8106 46.2879 51.9355C45.3643 50.7088 44.5473 49.4011 43.8405 48.0303C45.1867 47.5346 46.4797 46.923 47.7015 46.2095C47.3819 45.9775 47.0658 45.735 46.7568 45.4853C39.4145 48.8528 31.3407 48.8528 23.9098 45.4853C23.6042 45.735 23.2881 45.9775 22.9649 46.2095C24.1832 46.9195 25.4727 47.5311 26.8188 48.0268C26.1121 49.4011 25.2915 50.7053 24.3715 51.932C20.6454 50.8072 16.8553 49.0883 12.9445 46.2587C12.1452 37.9598 13.7436 29.5411 19.6401 20.9082C22.5635 19.5796 25.6928 18.6129 28.9643 18.0645C29.3693 18.7676 29.8488 19.7131 30.1721 20.4653C33.5821 19.9591 37.024 19.9591 40.498 20.4653C40.8212 19.7131 41.2901 18.7676 41.6915 18.0645ZM23.7712 36.6802C23.7712 39.1372 25.6005 41.1549 27.8312 41.1549C30.101 41.1549 31.8948 39.1372 31.8912 36.6802C31.9303 34.2196 30.101 32.202 27.8312 32.202C25.5614 32.202 23.7712 34.2232 23.7712 36.6802ZM38.7752 36.6802C38.7752 39.1372 40.6045 41.1549 42.8353 41.1549C45.105 41.1549 46.8953 39.1372 46.8953 36.6802C46.9343 34.2196 45.105 32.202 42.8353 32.202C40.5655 32.202 38.7752 34.2232 38.7752 36.6802Z" fill="white"/>
</svg>
