<svg width="73" height="70" viewBox="0 0 73 70" fill="none" xmlns="http://www.w3.org/2000/svg">
<path d="M36.1667 0C16.195 0 0 16.0658 0 35.8862C0 51.7411 10.3628 65.1928 24.733 69.9379C26.5405 70.2701 27.2041 69.1594 27.2041 68.2116C27.2041 67.3564 27.1705 64.5289 27.155 61.5303C17.0933 63.7012 14.9702 57.2962 14.9702 57.2962C13.3251 53.1489 10.9546 52.0453 10.9546 52.0453C7.67317 49.8181 11.2019 49.8638 11.2019 49.8638C14.8337 50.117 16.746 53.5625 16.746 53.5625C19.9717 59.048 25.2066 57.462 27.2705 56.5451C27.5957 54.2262 28.5325 52.6426 29.5667 51.7464C21.5336 50.8396 13.0891 47.7619 13.0891 34.0112C13.0891 30.0939 14.5019 26.892 16.8154 24.3789C16.44 23.4751 15.202 19.8252 17.1664 14.8821C17.1664 14.8821 20.2035 13.9182 27.1143 18.5611C29.9992 17.766 33.0931 17.3672 36.1667 17.353C39.2402 17.3672 42.3366 17.766 45.2269 18.5611C52.1299 13.9182 55.1627 14.8821 55.1627 14.8821C57.1313 19.8252 55.8934 23.4751 55.5179 24.3789C57.8368 26.892 59.2395 30.0939 59.2395 34.0112C59.2395 47.7952 50.7787 50.8294 42.7253 51.7179C44.0225 52.8316 45.1783 55.0154 45.1783 58.3635C45.1783 63.1651 45.137 67.0295 45.137 68.2116C45.137 69.1671 45.7875 70.2856 47.6208 69.9337C61.9837 65.1832 72.3333 51.7363 72.3333 35.8862C72.3333 16.0658 56.1407 0 36.1667 0Z" fill="white"/>
</svg>
