<svg width="71" height="70" viewBox="0 0 71 70" fill="none" xmlns="http://www.w3.org/2000/svg">
<path fill-rule="evenodd" clip-rule="evenodd" d="M35.3333 70C54.6633 70 70.3333 54.33 70.3333 35C70.3333 15.67 54.6633 0 35.3333 0C16.0033 0 0.333313 15.67 0.333313 35C0.333313 54.33 16.0033 70 35.3333 70ZM15.6905 50.6469C16.5954 51.549 17.6894 52 18.9726 52H51.6447C52.9279 52 54.0301 51.549 54.9514 50.6469C55.8727 49.7448 56.3333 48.6541 56.3333 47.3748V22.6744C56.3333 21.3951 55.8727 20.2962 54.9514 19.3777C54.0301 18.4592 52.9279 18 51.6447 18H18.9726C17.6894 18 16.5954 18.4592 15.6905 19.3777C14.7857 20.2962 14.3333 21.3951 14.3333 22.6744V47.3748C14.3333 48.6541 14.7857 49.7448 15.6905 50.6469ZM35.9502 36.8944C35.7528 36.96 35.539 36.9928 35.3086 36.9928C35.0783 36.9928 34.8645 36.96 34.667 36.8944C34.4696 36.8288 34.2558 36.7303 34.0254 36.5991L19.7129 27.0043C19.5484 26.8731 19.3838 26.6927 19.2193 26.4631C19.0548 26.2335 18.9726 25.9711 18.9726 25.6758C18.9726 25.0198 19.2522 24.5441 19.8116 24.2489C20.3709 23.9537 20.9303 23.9865 21.4896 24.3473L35.3086 33.4009L49.177 24.3473C49.7364 23.9537 50.2875 23.9373 50.8304 24.2981C51.3733 24.6589 51.6447 25.1346 51.6447 25.725C51.6447 26.0203 51.5707 26.2827 51.4226 26.5123C51.2746 26.7419 51.1183 26.9059 50.9538 27.0043L36.5918 36.5991C36.3615 36.7303 36.1476 36.8288 35.9502 36.8944Z" fill="white"/>
</svg>
