<svg width="90" height="91" viewBox="0 0 90 91" fill="none" xmlns="http://www.w3.org/2000/svg">
<path fill-rule="evenodd" clip-rule="evenodd" d="M12.6652 29.4488L17.9984 25.3678C20.4967 23.7638 23.5773 24.3536 25.2113 26.447C26.9008 28.6115 26.7512 32.1145 24.5443 33.7888L20.4967 36.9451C18.9446 38.1228 18.5716 39.9771 18.5716 41.9548V69.1303C18.5716 70.5899 19.7548 71.7731 21.2144 71.7731H34.4287C37.328 71.8008 39.7144 74.1594 39.7144 77.0588C39.7144 79.978 37.3479 82.3445 34.4287 82.3445H18.5715C12.7331 82.3445 8.00013 77.6115 8.00013 71.7731L8.00013 39.4595C7.9972 35.519 9.58191 31.8082 12.6652 29.4488Z" fill="white"/>
<path d="M82.0001 39.4595C82.003 35.519 80.361 31.8082 77.2777 29.4488L71.9445 25.3678L52.3069 10.4718C47.6049 7.17586 42.2806 7.17582 37.5786 10.4717L33.5389 13.7017C31.5265 15.3787 31.2603 18.8931 33.2035 21.0806C35.1468 23.2681 38.5341 23.2128 40.9178 21.416L42.488 20.2895C44.0815 19.2577 45.804 19.2577 47.3974 20.2895L69.4462 36.9451C70.9983 38.1228 71.4287 39.9771 71.4287 41.9548V69.1303C71.4287 70.5899 70.2454 71.7731 68.7858 71.7731H63.5001C62.0405 71.7731 60.8573 70.5899 60.8573 69.1303V61.2017C60.8573 55.3632 56.1243 50.6302 50.2858 50.6302H34.4287C31.5095 50.6302 29.143 52.9967 29.143 55.916C29.143 58.8352 31.5095 61.2017 34.4287 61.2017H47.643C49.1026 61.2017 50.2858 62.3849 50.2858 63.8445V71.8235C50.2858 77.6341 55.0467 82.3445 60.8573 82.3445H71.4287C77.2671 82.3445 82.0001 77.6115 82.0001 71.7731L82.0001 39.4595Z" fill="white"/>
<path fill-rule="evenodd" clip-rule="evenodd" d="M24.5441 33.789C26.7511 32.1147 26.9006 28.6117 25.2112 26.4472C23.5771 24.3538 20.4966 23.764 17.9982 25.368L12.6651 29.449C9.58177 31.8084 7.99706 35.5192 7.99999 39.4597L8 71.7733C8 77.6117 12.733 82.3447 18.5714 82.3447H34.4285C37.3478 82.3447 39.7143 79.9782 39.7143 77.059C39.7143 74.1596 37.3278 71.801 34.4285 71.7733H21.2143C19.7547 71.7733 18.5714 70.5901 18.5714 69.1305V41.955C18.5714 39.9773 18.9444 38.123 20.4966 36.9453L24.5441 33.789ZM0.132177 39.4656C0.132177 39.4643 0.132174 39.4631 0.132174 39.4619C0.132174 39.4612 0.132174 39.4604 0.132174 39.4597C0.12929 33.4439 2.57567 27.2626 7.88368 23.2007L13.4746 18.9225L13.7476 18.7472C16.9182 16.7116 20.6261 16.1434 24.0249 16.9171C24.1644 13.452 25.6347 10.047 28.5019 7.65766L28.5632 7.60661L32.8591 4.17182L33.0624 4.0293C40.4753 -1.16687 49.41 -1.16679 56.8228 4.0293L56.9438 4.11416L76.7125 19.1095L82.0589 23.2006C87.3081 27.2175 89.8723 33.3627 89.8678 39.4656L89.8678 71.7733C89.8678 81.957 81.6123 90.2126 71.4286 90.2126H60.8571C54.906 90.2126 49.5701 87.375 46.1882 82.9583C44.0258 87.2605 39.5719 90.2126 34.4285 90.2126H18.5714C8.38768 90.2126 0.132181 81.957 0.132181 71.7733L0.132177 39.4656ZM82 39.4597C82.0029 35.5192 80.3609 31.8084 77.2776 29.449L71.9444 25.368L52.3067 10.472C47.6048 7.17606 42.2804 7.17602 37.5785 10.4719L33.5388 13.7019C31.5264 15.3789 31.2601 18.8933 33.2034 21.0808C35.1466 23.2683 38.5339 23.213 40.9177 21.4162L42.4879 20.2897C44.0814 19.2579 45.8038 19.2579 47.3973 20.2897L69.4461 36.9453C70.9982 38.123 71.4286 39.9773 71.4286 41.955V69.1305C71.4286 70.5901 70.2453 71.7733 68.7857 71.7733H63.5C62.0404 71.7733 60.8571 70.5901 60.8571 69.1305V61.2019C60.8571 55.3634 56.1241 50.6304 50.2857 50.6304H34.4285C31.5093 50.6304 29.1428 52.9969 29.1428 55.9162C29.1428 58.8354 31.5093 61.2019 34.4285 61.2019H47.6428C49.1024 61.2019 50.2857 62.3851 50.2857 63.8447V71.8237C50.2857 77.6343 55.0465 82.3447 60.8571 82.3447H71.4286C77.267 82.3447 82 77.6117 82 71.7733L82 39.4597Z" fill="#242538"/>
</svg>