<svg width="13" height="13" viewBox="0 0 13 13" fill="none" xmlns="http://www.w3.org/2000/svg">
<path d="M6.33332 12.6666C5.45127 12.6666 4.62499 12.5002 3.85448 12.1673C3.08397 11.8344 2.41261 11.3829 1.84038 10.8128C1.26816 10.2427 0.818378 9.5707 0.491033 8.79677C0.163678 8.02285 0 7.19272 0 6.3064C0 5.42434 0.163678 4.59977 0.491033 3.83268C0.818378 3.06559 1.26816 2.39701 1.84038 1.82692C2.41261 1.25684 3.08397 0.809833 3.85448 0.4859C4.62499 0.161967 5.45127 0 6.33332 0C7.21536 0 8.04164 0.161967 8.81215 0.4859C9.58266 0.809833 10.254 1.25684 10.8263 1.82692C11.3985 2.39701 11.8483 3.06559 12.1756 3.83268C12.503 4.59977 12.6666 5.42434 12.6666 6.3064C12.6666 7.19272 12.503 8.02285 12.1756 8.79677C11.8483 9.5707 11.3985 10.2427 10.8263 10.8128C10.254 11.3829 9.58266 11.8344 8.81215 12.1673C8.04164 12.5002 7.21536 12.6666 6.33332 12.6666ZM6.33332 11.9436C6.74785 11.4966 7.08888 11.0115 7.3564 10.4884C7.62392 9.96536 7.84315 9.35253 8.01408 8.64997H4.6628C4.83118 9.34228 5.04913 9.95403 5.31665 10.4852C5.58417 11.0164 5.92306 11.5025 6.33332 11.9436ZM5.27565 11.8077C4.96368 11.4025 4.6874 10.931 4.4468 10.3929C4.2062 9.85489 4.01709 9.2739 3.87948 8.64997H1.22563C1.65212 9.51151 2.18802 10.1919 2.83333 10.691C3.47863 11.1902 4.29274 11.5624 5.27565 11.8077ZM7.40765 11.7974C8.28031 11.6017 9.0692 11.2312 9.77433 10.6859C10.4795 10.1406 11.035 9.46195 11.441 8.64997H8.7974C8.63159 9.27561 8.43116 9.85532 8.19612 10.3891C7.96107 10.9229 7.69825 11.3923 7.40765 11.7974ZM0.98205 7.89358H3.74103C3.69914 7.58931 3.67222 7.30918 3.66025 7.0532C3.64828 6.79721 3.6423 6.54828 3.6423 6.3064C3.6423 6.03717 3.64999 5.78246 3.66538 5.54228C3.68077 5.30212 3.70941 5.04229 3.75128 4.7628H0.98205C0.899994 5.02092 0.841872 5.27049 0.807683 5.51152C0.773495 5.75255 0.7564 6.01751 0.7564 6.3064C0.7564 6.59956 0.773495 6.87178 0.807683 7.12307C0.841872 7.37434 0.899994 7.63118 0.98205 7.89358ZM4.51793 7.89358H8.15897C8.20768 7.55768 8.23973 7.27178 8.25512 7.03588C8.27051 6.79998 8.2782 6.55682 8.2782 6.3064C8.2782 6.06708 8.27051 5.83396 8.25512 5.60703C8.23973 5.38011 8.20768 5.0987 8.15897 4.7628H4.51793C4.46921 5.0987 4.43716 5.38011 4.42177 5.60703C4.40639 5.83396 4.3987 6.06708 4.3987 6.3064C4.3987 6.55682 4.40639 6.79998 4.42177 7.03588C4.43716 7.27178 4.46921 7.55768 4.51793 7.89358ZM8.91535 7.89358H11.6846C11.7666 7.63118 11.8248 7.37434 11.859 7.12307C11.8931 6.87178 11.9102 6.59956 11.9102 6.3064C11.9102 6.01751 11.8931 5.75255 11.859 5.51152C11.8248 5.27049 11.7666 5.02092 11.6846 4.7628H8.93202C8.96963 5.13032 8.99612 5.42968 9.0115 5.66088C9.02689 5.89207 9.03458 6.10724 9.03458 6.3064C9.03458 6.55511 9.02518 6.79956 9.00638 7.03973C8.98757 7.2799 8.95723 7.56452 8.91535 7.89358ZM8.78715 4.0064H11.441C11.0487 3.15427 10.5053 2.45875 9.81087 1.91985C9.11642 1.38096 8.3098 1.02519 7.39098 0.85255C7.70295 1.27221 7.97539 1.74336 8.2083 2.26602C8.44121 2.78867 8.63416 3.3688 8.78715 4.0064ZM4.6628 4.0064H8.03075C7.88289 3.37906 7.66345 2.78718 7.37242 2.23077C7.08139 1.67436 6.73503 1.17863 6.33332 0.743583C5.95639 1.09059 5.63823 1.51923 5.37883 2.02948C5.11942 2.53974 4.88074 3.19871 4.6628 4.0064ZM1.22563 4.0064H3.88973C4.02906 3.38931 4.21239 2.82222 4.43975 2.30512C4.66711 1.78802 4.94018 1.30724 5.25898 0.8628C4.34017 1.03972 3.53974 1.39314 2.85768 1.92307C2.17563 2.45298 1.63161 3.14742 1.22563 4.0064Z" fill="white"/>
</svg>
